<svg width="122" height="40" viewBox="0 0 122 40" fill="none" xmlns="http://www.w3.org/2000/svg">
<g clip-path="url(#clip0)">
<path d="M112.285 7.92969e-06H9.7208C9.34695 7.92969e-06 8.97757 7.92975e-06 8.6047 0.00200793C8.29258 0.00400793 7.98294 0.00981793 7.66782 0.0147079C6.98322 0.0226097 6.30024 0.0816842 5.6248 0.191418C4.95031 0.303541 4.29695 0.514924 3.68681 0.818418C3.07742 1.12448 2.52061 1.52218 2.03656 1.99708C1.54998 2.47064 1.14437 3.01802 0.835344 3.61817C0.525461 4.21712 0.310587 4.85895 0.198144 5.52149C0.0846314 6.18319 0.0235493 6.85253 0.0154457 7.52349C0.00598459 7.83009 0.00498546 8.13771 0 8.44435V31.5586C0.00498546 31.8691 0.00598459 32.1699 0.0154457 32.4805C0.0235518 33.1514 0.0846339 33.8207 0.198144 34.4824C0.310277 35.1453 0.525163 35.7875 0.835344 36.3867C1.14423 36.9849 1.5499 37.5301 2.03656 38.001C2.51877 38.478 3.07595 38.876 3.68681 39.1797C4.29694 39.484 4.95023 39.6967 5.6248 39.8105C6.30035 39.9194 6.98327 39.9785 7.66782 39.9873C7.98294 39.9941 8.29258 39.998 8.6047 39.998C8.97756 40 9.34697 40 9.7208 40H112.285C112.651 40 113.023 40 113.39 39.998C113.7 39.998 114.019 39.9941 114.33 39.9873C115.013 39.9789 115.695 39.9198 116.369 39.8105C117.046 39.6959 117.701 39.4833 118.314 39.1797C118.925 38.8758 119.481 38.4779 119.963 38.001C120.448 37.5282 120.855 36.9835 121.168 36.3867C121.476 35.7871 121.688 35.145 121.799 34.4824C121.913 33.8206 121.976 33.1515 121.988 32.4805C121.992 32.1699 121.992 31.8691 121.992 31.5586C122 31.1953 122 30.834 122 30.4648V9.53614C122 9.16993 122 8.80665 121.992 8.44435C121.992 8.13771 121.992 7.83009 121.988 7.52345C121.976 6.85243 121.913 6.18324 121.799 5.52145C121.688 4.85929 121.475 4.21751 121.168 3.61813C120.538 2.4152 119.54 1.43603 118.314 0.818328C117.701 0.515575 117.045 0.304248 116.369 0.191328C115.695 0.0811107 115.013 0.0220157 114.33 0.0145679C114.019 0.00968793 113.7 0.00382793 113.39 0.00187793C113.023 -0.00012207 112.651 -0.00012207 112.285 -0.00012207V7.92969e-06Z" fill="#A6A6A6"/>
<path d="M8.60964 39.125C8.29901 39.125 7.99589 39.1211 7.6877 39.1143C7.04926 39.1061 6.41231 39.0516 5.78207 38.9512C5.19441 38.8519 4.62512 38.6673 4.09299 38.4033C3.56574 38.1415 3.08484 37.7983 2.66872 37.3867C2.24658 36.98 1.89513 36.5082 1.62829 35.9902C1.35851 35.4688 1.17181 34.9099 1.07469 34.333C0.969807 33.7131 0.91306 33.0863 0.90494 32.458C0.898477 32.2471 0.890015 31.5449 0.890015 31.5449V8.44434C0.890015 8.44434 0.899027 7.75293 0.904991 7.5498C0.912766 6.92248 0.969183 6.29665 1.07375 5.67773C1.17105 5.09925 1.3579 4.53875 1.62782 4.01563C1.89368 3.49794 2.24318 3.02586 2.66278 2.61768C3.08191 2.20562 3.56434 1.8606 4.09249 1.59521C4.6234 1.33209 5.19161 1.14873 5.77809 1.05127C6.41039 0.949836 7.04955 0.894996 7.69021 0.88721L8.61014 0.875H113.385L114.316 0.8877C114.951 0.895099 115.584 0.94945 116.21 1.05029C116.803 1.14898 117.377 1.33362 117.914 1.59814C118.972 2.13299 119.833 2.97916 120.376 4.01807C120.642 4.53758 120.826 5.09351 120.922 5.66699C121.028 6.29099 121.087 6.92174 121.099 7.5542C121.102 7.8374 121.102 8.1416 121.102 8.44434C121.11 8.81934 121.11 9.17627 121.11 9.53613V30.4648C121.11 30.8281 121.11 31.1826 121.102 31.54C121.102 31.8652 121.102 32.1631 121.098 32.4697C121.086 33.0909 121.028 33.7104 120.924 34.3232C120.829 34.9043 120.643 35.4675 120.373 35.9932C120.104 36.5056 119.755 36.9733 119.338 37.3789C118.921 37.7927 118.439 38.1379 117.911 38.4014C117.375 38.6674 116.802 38.8527 116.21 38.9512C115.58 39.0522 114.943 39.1067 114.305 39.1143C114.006 39.1211 113.693 39.125 113.39 39.125L112.285 39.127L8.60964 39.125Z" fill="black"/>
<path d="M25.2524 20.3007C25.2634 19.466 25.4894 18.6477 25.9095 17.9217C26.3296 17.1957 26.93 16.5858 27.655 16.1486C27.1944 15.5035 26.5868 14.9725 25.8805 14.598C25.1741 14.2234 24.3885 14.0156 23.5859 13.991C21.8739 13.8147 20.2142 14.9958 19.3418 14.9958C18.4525 14.9958 17.1092 14.0085 15.6628 14.0376C14.7272 14.0673 13.8154 14.3341 13.0162 14.8122C12.2171 15.2903 11.5578 15.9632 11.1026 16.7655C9.13083 20.1139 10.6016 25.035 12.4904 27.7416C13.4353 29.0669 14.5398 30.5474 15.9849 30.4949C17.399 30.4374 17.9272 29.6104 19.6342 29.6104C21.3253 29.6104 21.8208 30.4949 23.2953 30.4615C24.8127 30.4374 25.7687 29.1303 26.6806 27.7924C27.3596 26.848 27.882 25.8043 28.2286 24.6999C27.3471 24.3341 26.5947 23.722 26.0655 22.9397C25.5362 22.1574 25.2535 21.2396 25.2524 20.3007V20.3007Z" fill="white"/>
<path d="M22.4675 12.2109C23.2949 11.2367 23.7025 9.98451 23.6038 8.72028C22.3398 8.8505 21.1722 9.44306 20.3336 10.3799C19.9236 10.8376 19.6096 11.37 19.4095 11.9468C19.2095 12.5235 19.1272 13.1333 19.1676 13.7413C19.7998 13.7477 20.4253 13.6132 20.9969 13.3482C21.5685 13.0831 22.0713 12.6942 22.4675 12.2109Z" fill="white"/>
<path d="M43.1281 27.1396H38.3023L37.1434 30.4961H35.0994L39.6703 18.0781H41.794L46.3649 30.4961H44.286L43.1281 27.1396ZM38.8021 25.5908H42.6273L40.7416 20.1435H40.6888L38.8021 25.5908Z" fill="white"/>
<path d="M56.2365 25.9697C56.2365 28.7832 54.7012 30.5908 52.3844 30.5908C51.7975 30.6209 51.2138 30.4883 50.7002 30.2082C50.1866 29.928 49.7637 29.5117 49.4801 29.0068H49.4363V33.4912H47.5416V21.4424H49.3756V22.9482H49.4104C49.7071 22.4458 50.137 22.0316 50.6546 21.7497C51.1721 21.4679 51.7579 21.3289 52.3495 21.3476C54.6922 21.3477 56.2365 23.1641 56.2365 25.9697ZM54.289 25.9697C54.289 24.1367 53.3232 22.9316 51.8497 22.9316C50.4021 22.9316 49.4284 24.1621 49.4284 25.9697C49.4284 27.7939 50.4021 29.0156 51.8497 29.0156C53.3233 29.0156 54.289 27.8193 54.289 25.9697Z" fill="white"/>
<path d="M66.3959 25.9697C66.3959 28.7832 64.8606 30.5908 62.5438 30.5908C61.9569 30.6209 61.3732 30.4883 60.8596 30.2082C60.346 29.928 59.9232 29.5117 59.6396 29.0068H59.5957V33.4912H57.701V21.4424H59.535V22.9482H59.5698C59.8665 22.4458 60.2964 22.0316 60.814 21.7497C61.3315 21.4679 61.9173 21.3289 62.5089 21.3476C64.8517 21.3476 66.3959 23.164 66.3959 25.9697ZM64.4484 25.9697C64.4484 24.1367 63.4827 22.9316 62.0092 22.9316C60.5615 22.9316 59.5878 24.1621 59.5878 25.9697C59.5878 27.7939 60.5615 29.0156 62.0092 29.0156C63.4827 29.0156 64.4485 27.8193 64.4485 25.9697H64.4484Z" fill="white"/>
<path d="M73.1104 27.0361C73.2508 28.2676 74.4705 29.0761 76.1371 29.0761C77.7341 29.0761 78.8831 28.2675 78.8831 27.1572C78.8831 26.1933 78.1901 25.6162 76.5493 25.2207L74.9085 24.833C72.5837 24.2822 71.5045 23.2158 71.5045 21.4853C71.5045 19.3427 73.4081 17.871 76.1112 17.871C78.7865 17.871 80.6204 19.3427 80.6822 21.4853H78.7695C78.655 20.246 77.6106 19.498 76.0843 19.498C74.558 19.498 73.5136 20.2548 73.5136 21.3564C73.5136 22.2343 74.1807 22.7509 75.8125 23.1464L77.2074 23.4823C79.805 24.0849 80.8842 25.1083 80.8842 26.9247C80.8842 29.248 78.9975 30.703 75.9967 30.703C73.189 30.703 71.2934 29.2821 71.1709 27.036L73.1104 27.0361Z" fill="white"/>
<path d="M84.9733 19.2998V21.4424H86.7286V22.9141H84.9733V27.9053C84.9733 28.6807 85.3247 29.042 86.0964 29.042C86.3047 29.0384 86.5128 29.0241 86.7196 28.999V30.4619C86.3727 30.5255 86.0201 30.5543 85.6672 30.5478C83.7984 30.5478 83.0696 29.8593 83.0696 28.1035V22.9141H81.7275V21.4424H83.0696V19.2998H84.9733Z" fill="white"/>
<path d="M87.7451 25.9697C87.7451 23.1211 89.4556 21.3311 92.1229 21.3311C94.7991 21.3311 96.5016 23.1211 96.5016 25.9697C96.5016 28.8262 94.8081 30.6084 92.1229 30.6084C89.4386 30.6084 87.7451 28.8262 87.7451 25.9697ZM94.5711 25.9697C94.5711 24.0156 93.6581 22.8623 92.1229 22.8623C90.5876 22.8623 89.6756 24.0244 89.6756 25.9697C89.6756 27.9316 90.5876 29.0762 92.1229 29.0762C93.6581 29.0762 94.5711 27.9316 94.5711 25.9697H94.5711Z" fill="white"/>
<path d="M98.0637 21.4424H99.8708V22.9834H99.9146C100.037 22.5021 100.324 22.0768 100.729 21.7789C101.133 21.481 101.63 21.3287 102.135 21.3476C102.353 21.3469 102.571 21.3702 102.784 21.417V23.1553C102.508 23.0726 102.221 23.0347 101.933 23.043C101.657 23.032 101.383 23.0796 101.128 23.1825C100.874 23.2854 100.645 23.4411 100.457 23.639C100.269 23.8369 100.128 24.0723 100.042 24.3289C99.9557 24.5856 99.9272 24.8575 99.9584 25.126V30.4961H98.0637L98.0637 21.4424Z" fill="white"/>
<path d="M111.52 27.8369C111.265 29.4805 109.633 30.6084 107.545 30.6084C104.86 30.6084 103.193 28.8437 103.193 26.0127C103.193 23.1729 104.869 21.3311 107.465 21.3311C110.019 21.3311 111.625 23.0518 111.625 25.7969V26.4336H105.106V26.5459C105.076 26.8791 105.118 27.2148 105.231 27.5306C105.343 27.8464 105.522 28.1352 105.757 28.3778C105.992 28.6203 106.277 28.8111 106.593 28.9374C106.909 29.0637 107.248 29.1226 107.589 29.1103C108.037 29.1515 108.486 29.0498 108.87 28.8203C109.254 28.5909 109.552 28.246 109.721 27.8369L111.52 27.8369ZM105.115 25.1348H109.73C109.747 24.8352 109.7 24.5354 109.593 24.2541C109.487 23.9729 109.322 23.7164 109.109 23.5006C108.897 23.2849 108.641 23.1145 108.358 23.0003C108.075 22.8861 107.771 22.8305 107.465 22.8369C107.157 22.8351 106.851 22.8933 106.566 23.008C106.28 23.1227 106.021 23.2918 105.802 23.5054C105.583 23.7191 105.41 23.973 105.292 24.2527C105.174 24.5323 105.114 24.8321 105.115 25.1348V25.1348Z" fill="white"/>
<path d="M37.4555 11.2534H38.2689C38.4089 11.2705 38.551 11.259 38.6863 11.2195C38.8215 11.1801 38.947 11.1136 39.0548 11.0242C39.1625 10.9349 39.2502 10.8246 39.3124 10.7003C39.3745 10.5761 39.4098 10.4405 39.4158 10.3023C39.4158 9.75196 38.9937 9.39649 38.2778 9.39649C38.1344 9.37683 37.9884 9.38556 37.8484 9.42217C37.7084 9.45878 37.5774 9.52252 37.4629 9.60964C37.3485 9.69675 37.253 9.80547 37.1822 9.92938C37.1113 10.0533 37.0664 10.1899 37.0502 10.3311H36.1571C36.1725 10.0748 36.2415 9.82431 36.3598 9.5953C36.4782 9.36629 36.6433 9.16362 36.8449 8.99992C37.0466 8.83621 37.2804 8.71498 37.5319 8.64375C37.7834 8.57253 38.0471 8.55285 38.3067 8.58594C39.5044 8.58594 40.3478 9.24365 40.3478 10.1904C40.3506 10.5076 40.2424 10.8161 40.0413 11.0645C39.8401 11.3129 39.5582 11.4861 39.2426 11.5552V11.6255C39.6168 11.6418 39.9692 11.8027 40.2227 12.0731C40.4762 12.3434 40.6103 12.7013 40.5957 13.0684C40.568 13.3323 40.4869 13.5881 40.3571 13.8208C40.2273 14.0536 40.0514 14.2585 39.8398 14.4238C39.6282 14.589 39.3851 14.7111 39.1248 14.783C38.8644 14.8548 38.5921 14.875 38.3237 14.8423C38.0547 14.8783 37.7811 14.8607 37.5192 14.7908C37.2573 14.7208 37.0124 14.5999 36.7992 14.4351C36.586 14.2703 36.4087 14.0651 36.2781 13.8317C36.1474 13.5984 36.066 13.3416 36.0387 13.0767H36.9457C37.0005 13.6475 37.5351 14.0157 38.3237 14.0157C39.1122 14.0157 39.6269 13.6021 39.6269 13.0191C39.6269 12.4278 39.1421 12.0635 38.2948 12.0635H37.4555V11.2534Z" fill="white"/>
<path d="M41.6261 13.4243C41.6261 12.6138 42.2424 12.1465 43.3336 12.0801L44.5771 12.0098V11.6211C44.5771 11.1455 44.2575 10.877 43.6373 10.877C43.1315 10.877 42.782 11.0591 42.6805 11.3774H41.8033C41.8959 10.604 42.6387 10.1079 43.6801 10.1079C44.831 10.1079 45.4802 10.6699 45.4802 11.6211V14.6977H44.607V14.0649H44.5353C44.3898 14.2919 44.1855 14.477 43.9432 14.6012C43.701 14.7254 43.4295 14.7843 43.1564 14.7719C42.9637 14.7916 42.7689 14.7714 42.5846 14.7127C42.4003 14.654 42.2306 14.5581 42.0864 14.4311C41.9422 14.3042 41.8268 14.149 41.7475 13.9756C41.6682 13.8021 41.6269 13.6144 41.6261 13.4243V13.4243ZM44.5771 13.0395V12.6631L43.456 12.7334C42.8238 12.7749 42.537 12.9858 42.537 13.3828C42.537 13.7881 42.8955 14.0239 43.3883 14.0239C43.5328 14.0383 43.6786 14.024 43.8173 13.9819C43.956 13.9398 44.0846 13.8708 44.1955 13.7789C44.3064 13.6871 44.3974 13.5743 44.4629 13.4473C44.5285 13.3202 44.5673 13.1816 44.5771 13.0395V13.0395Z" fill="white"/>
<path d="M47.8847 10.9429V14.6978H46.9786V10.1948H50.0014V10.9428L47.8847 10.9429Z" fill="white"/>
<path d="M55.4922 12.4444C55.4922 13.875 54.7545 14.772 53.5956 14.772C53.3111 14.7911 53.027 14.73 52.7767 14.596C52.5264 14.462 52.3203 14.2606 52.1828 14.0156H52.1111V16.1948H51.2051V10.1948H52.0772V10.939H52.145C52.285 10.6855 52.4937 10.4748 52.7481 10.3303C53.0025 10.1858 53.2927 10.1131 53.5866 10.1202C54.7545 10.1201 55.4922 11.0132 55.4922 12.4444ZM54.5603 12.4444C54.5603 11.4932 54.1014 10.9185 53.3337 10.9185C52.5711 10.9185 52.0942 11.5054 52.0942 12.4483C52.0942 13.3867 52.5711 13.9741 53.3297 13.9741C54.1014 13.9741 54.5603 13.3994 54.5603 12.4444Z" fill="white"/>
<path d="M56.6989 16.3106V15.5454C56.797 15.5576 56.8958 15.5632 56.9946 15.562C57.1876 15.576 57.3791 15.5197 57.5324 15.4037C57.6856 15.2877 57.7898 15.1203 57.8249 14.9336L57.8927 14.7144L56.231 10.1948H57.2176L58.3686 13.7715H58.4403L59.5873 10.1948H60.548L58.8366 14.8838C58.4443 15.9795 58.0102 16.3311 57.0743 16.3311C56.9986 16.3311 56.7836 16.3228 56.6989 16.3106Z" fill="white"/>
<path d="M61.2539 13.4199H62.1559C62.2446 13.8169 62.6239 14.0239 63.1546 14.0239C63.7579 14.0239 64.1283 13.7632 64.1283 13.3579C64.1283 12.9239 63.7957 12.7168 63.1546 12.7168H62.4676V12.0264H63.1426C63.6902 12.0264 63.969 11.8199 63.969 11.4434C63.969 11.1128 63.6992 10.8604 63.1426 10.8604C62.6358 10.8604 62.2655 11.0713 62.2067 11.4268H61.3336C61.3988 11.0183 61.6249 10.6513 61.9633 10.4047C62.3016 10.1581 62.725 10.0515 63.1426 10.108C64.2338 10.108 64.8581 10.5918 64.8581 11.3526C64.8632 11.5644 64.794 11.7716 64.662 11.9394C64.5301 12.1072 64.3434 12.2255 64.1333 12.2745V12.3448C64.3835 12.3764 64.6132 12.4971 64.7787 12.6839C64.9443 12.8706 65.0341 13.1105 65.0313 13.358C65.0313 14.214 64.2886 14.7803 63.1546 14.7803C62.152 14.7803 61.3375 14.3296 61.2539 13.4199Z" fill="white"/>
<path d="M66.3361 14.6978V10.1948H67.2341V13.292H67.3058L69.4215 10.1948H70.3196V14.6978H69.4215V11.584H69.3538L67.2341 14.6978L66.3361 14.6978Z" fill="white"/>
<path d="M75.2669 10.9429H73.8212V14.6978H72.9142V10.9429H71.4685V10.1949H75.2669V10.9429Z" fill="white"/>
<path d="M80.1474 13.4819C80.0239 13.8934 79.757 14.2493 79.3932 14.4875C79.0294 14.7256 78.5919 14.8308 78.1571 14.7847C77.8546 14.7925 77.5541 14.7357 77.2763 14.6181C76.9984 14.5006 76.75 14.3252 76.5482 14.104C76.3465 13.8829 76.1962 13.6213 76.1078 13.3375C76.0194 13.0537 75.9951 12.7544 76.0364 12.4604C75.9961 12.1655 76.0209 11.8656 76.1091 11.5809C76.1973 11.2963 76.3468 11.0335 76.5475 10.8104C76.7482 10.5874 76.9954 10.4092 77.2725 10.288C77.5495 10.1668 77.8498 10.1054 78.1531 10.1079C79.4305 10.1079 80.2021 10.9639 80.2021 12.3779V12.688H76.9604V12.7378C76.946 12.9031 76.9671 13.0695 77.0222 13.2263C77.0773 13.3831 77.1653 13.5269 77.2804 13.6484C77.3956 13.7699 77.5353 13.8664 77.6908 13.9317C77.8462 13.9971 78.0139 14.0298 78.183 14.0278C78.3996 14.0532 78.619 14.0149 78.8133 13.9177C79.0076 13.8204 79.168 13.6688 79.2742 13.4819L80.1474 13.4819ZM76.9603 12.0308H79.2781C79.2896 11.8797 79.2687 11.728 79.2168 11.5853C79.165 11.4426 79.0832 11.3122 78.9769 11.2023C78.8706 11.0925 78.742 11.0057 78.5995 10.9474C78.4569 10.8892 78.3035 10.8609 78.1491 10.8643C77.9924 10.8622 77.8368 10.8909 77.6916 10.9488C77.5463 11.0067 77.4144 11.0925 77.3036 11.2013C77.1928 11.31 77.1053 11.4395 77.0464 11.5819C76.9874 11.7244 76.9582 11.877 76.9604 12.0308H76.9603Z" fill="white"/>
<path d="M83.9885 10.1948H86.0584C86.9565 10.1948 87.4832 10.6411 87.4832 11.3398C87.4846 11.5615 87.4083 11.777 87.2671 11.9501C87.1259 12.1233 86.9284 12.2436 86.7076 12.291V12.3613C86.9757 12.3779 87.227 12.4949 87.4097 12.6881C87.5924 12.8813 87.6925 13.1359 87.6893 13.3994C87.6893 14.185 87.0869 14.6977 86.0793 14.6977H83.9885V10.1948ZM84.8866 10.877V12.043H85.7846C86.3322 12.043 86.5941 11.8364 86.5941 11.4556C86.5941 11.1045 86.3661 10.8769 85.8852 10.8769L84.8866 10.877ZM84.8866 12.6963V14.0156H85.9609C86.4966 14.0156 86.7833 13.7837 86.7833 13.3579C86.7833 12.9072 86.4587 12.6963 85.8474 12.6963L84.8866 12.6963Z" fill="white"/>
</g>
<defs>
<clipPath id="clip0">
<rect width="122" height="40" fill="white"/>
</clipPath>
</defs>
</svg>
