<svg width="127" height="117" viewBox="0 0 127 117" fill="none" xmlns="http://www.w3.org/2000/svg">
<path d="M119.958 0H7.04205C3.15888 0 0 3.17279 0 7.07283V85.301C0 89.201 3.15888 92.3738 7.04205 92.3738H51.1284L48.2193 104.758H33.3963C31.0381 104.758 29.1195 106.685 29.1195 109.054V112.704C29.1195 115.073 31.0379 117 33.3963 117H93.6037C95.9619 117 97.8805 115.073 97.8805 112.704V109.054C97.8805 106.685 95.9621 104.758 93.6037 104.758H78.7807L75.8716 92.3738H119.958C123.841 92.3738 127 89.201 127 85.301V7.07283C127 3.17279 123.841 0 119.958 0ZM93.6037 108.498C93.9086 108.498 94.1569 108.747 94.1569 109.054V112.704C94.1569 113.011 93.9086 113.26 93.6037 113.26H33.3963C33.0914 113.26 32.8431 113.011 32.8431 112.704V109.054C32.8431 108.747 33.0914 108.498 33.3963 108.498H93.6037ZM52.0452 104.758L54.9543 92.374H72.0462L74.9553 104.758H52.0452ZM119.958 88.6342H7.04205C5.21221 88.6342 3.72368 87.1391 3.72368 85.3012V7.07283C3.72368 5.23492 5.21246 3.73984 7.04205 3.73984H119.958C121.788 3.73984 123.276 5.23517 123.276 7.07283V85.3012H123.277C123.277 87.1391 121.788 88.6342 119.958 88.6342Z" fill="#91B4E7"/>
<path d="M116.946 49.3035C115.918 49.3035 115.084 50.1406 115.084 51.1736V73.8894H11.9151V51.1736C11.9151 50.1409 11.0816 49.3035 10.0532 49.3035C9.02484 49.3035 8.19141 50.1406 8.19141 51.1736V74.0077C8.19141 76.0046 9.80892 77.6292 11.797 77.6292H115.202C117.19 77.6292 118.808 76.0046 118.808 74.0077V51.1736C118.808 50.1409 117.975 49.3035 116.946 49.3035Z" fill="#91B4E7"/>
<path d="M115.203 8.22779H11.7975C9.80916 8.22779 8.19189 9.85243 8.19189 11.8495V41.2004C8.19189 42.2331 9.02533 43.0705 10.0537 43.0705C11.0821 43.0705 11.9156 42.2334 11.9156 41.2004V11.9676H115.085V41.2004C115.085 42.2331 115.918 43.0705 116.947 43.0705C117.975 43.0705 118.809 42.2334 118.809 41.2004V11.8495C118.808 9.85243 117.191 8.22779 115.203 8.22779Z" fill="#91B4E7"/>
<path d="M57.4546 39.65H62.1671V42.0171H57.4546V39.65Z" fill="#91B4E7"/>
<path d="M97.6797 36.112L89.6766 34.9641C88.2173 34.0636 86.7029 33.2576 85.1414 32.5502C79.985 30.2043 74.3884 28.9938 68.7272 29H67.3369C60.6559 29.0048 54.0819 30.6887 48.214 33.898L44.175 36.111C39.4472 36.1645 34.8104 37.4275 30.7029 39.7792C29.0336 40.7408 28.0029 42.5248 28 44.4571V51.4839C28 52.1378 28.5273 52.6674 29.1784 52.6674H33.1344C34.4211 56.3544 38.44 58.2959 42.1107 57.0035C44.1314 56.2923 45.7197 54.6965 46.4278 52.6674H77.9053C79.192 56.3544 83.2109 58.2959 86.8817 57.0035C88.9019 56.2923 90.4906 54.6965 91.1987 52.6674H91.6215C91.7716 52.6674 91.9202 52.639 92.0597 52.5832L95.8757 51.0452C97.5805 50.3672 98.697 48.7099 98.6908 46.869V37.2835C98.6908 36.6951 98.2598 36.1958 97.6797 36.112ZM44.3989 51.2474C43.8778 53.8086 41.3883 55.4607 38.8383 54.9373C36.2879 54.4139 34.6431 51.9134 35.1642 49.3517C35.6858 46.7906 38.1753 45.1385 40.7253 45.6619C42.9195 46.1121 44.4948 48.0512 44.4943 50.3008C44.4943 50.6186 44.4622 50.9359 44.3989 51.2474ZM65.7017 50.3008H46.8506C46.8506 46.3793 43.6861 43.2004 39.7818 43.2004C35.8775 43.2004 32.7125 46.3793 32.7125 50.3008H30.3563V44.4571C30.3577 43.3732 30.9359 42.3722 31.8726 41.8338C35.7174 39.629 40.0675 38.4685 44.4943 38.4671H65.7017V50.3008ZM65.7017 36.1004H49.1153L49.3425 35.9757C54.3796 33.2263 59.9747 31.6676 65.7017 31.4187V36.1004ZM68.0579 31.3667H68.7248C73.4728 31.3614 78.1776 32.2666 82.5877 34.0343L80.5305 36.1004H68.0579V31.3667ZM89.1699 51.2474C88.6487 53.8086 86.1592 55.4607 83.6088 54.9373C81.0588 54.4139 79.414 51.9134 79.9351 49.3517C80.4562 46.7906 82.9463 45.1385 85.4962 45.6619C87.6904 46.1121 89.2657 48.0512 89.2653 50.3008C89.2653 50.6186 89.2331 50.9359 89.1699 51.2474ZM96.3345 39.6502H92.7999V42.0173H96.3345V46.869C96.3374 47.7411 95.8081 48.5259 95.0008 48.8461L91.6215 50.2093C91.6215 50.1005 91.6076 49.9926 91.6004 49.8838C91.5932 49.775 91.5908 49.6474 91.5793 49.5289C91.5673 49.4105 91.5439 49.292 91.5252 49.174C91.506 49.0556 91.4921 48.9371 91.4686 48.8298C91.4451 48.7219 91.4106 48.6025 91.3799 48.4898C91.3492 48.3776 91.3257 48.264 91.2903 48.1537C91.2553 48.0439 91.2126 47.9385 91.1728 47.8306C91.1325 47.7232 91.0961 47.612 91.0549 47.5051C91.0136 47.3987 90.958 47.3019 90.9086 47.2013C90.8593 47.1006 90.8108 46.9904 90.7557 46.8888C90.7001 46.7872 90.6378 46.7005 90.5846 46.6061C90.5318 46.5113 90.4671 46.4034 90.4 46.3066C90.3324 46.2094 90.2701 46.1328 90.2054 46.0452C90.1406 45.9575 90.0673 45.8545 89.992 45.7635C89.9168 45.6725 89.8463 45.6012 89.7729 45.5266C89.7001 45.4524 89.6186 45.3518 89.5376 45.269C89.4561 45.1861 89.376 45.1207 89.295 45.0475C89.2135 44.9743 89.1262 44.8876 89.0366 44.8106C88.9474 44.734 88.8563 44.6748 88.7672 44.6074C88.6775 44.54 88.5879 44.4677 88.4939 44.4046C88.3995 44.342 88.2935 44.2867 88.1924 44.2202C88.0907 44.1538 88.0083 44.1018 87.9129 44.0512C87.8175 44.0002 87.6986 43.9467 87.5902 43.8947C87.4819 43.8427 87.397 43.7965 87.2968 43.7541C87.1966 43.7113 87.061 43.6665 86.9435 43.6241C86.8256 43.5813 86.7489 43.548 86.6487 43.5162C86.5144 43.4748 86.3769 43.445 86.2397 43.4108C86.1501 43.3896 86.0643 43.3612 85.9737 43.3424C85.8289 43.3126 85.6803 43.2962 85.5331 43.2745C85.4459 43.263 85.3624 43.2437 85.2752 43.2355C85.0393 43.2119 84.8039 43.1989 84.5566 43.1989C80.6537 43.2028 77.4911 46.3793 77.4873 50.2993H68.0584V38.4666H81.0181C81.3307 38.4666 81.6303 38.3419 81.8508 38.1199L84.906 35.0512C86.1884 35.6642 87.4354 36.3494 88.6411 37.1034C88.7801 37.1906 88.9354 37.2479 89.0979 37.2715L96.3345 38.3091V39.6502Z" fill="#91B4E7"/>
</svg>
