<svg width="97" height="128" viewBox="0 0 97 128" fill="none" xmlns="http://www.w3.org/2000/svg">
<circle opacity="0.6" cx="57.5" cy="39.5" r="39.5" fill="#D1EBFF"/>
<path d="M58.4831 11H8.51695C3.82059 11 0 14.8441 0 19.5693V119.431C0 124.156 3.82059 128 8.51695 128H58.4831C63.1794 128 67 124.156 67 119.431V19.5693C67 14.8441 63.1794 11 58.4831 11ZM63.5932 104.006H15.3305C14.3898 104.006 13.6271 104.773 13.6271 105.72C13.6271 106.666 14.3898 107.434 15.3305 107.434H63.5932V119.431C63.5932 122.266 61.3009 124.572 58.4831 124.572H8.51695C5.69909 124.572 3.40678 122.266 3.40678 119.431V107.434H8.51695C9.45767 107.434 10.2203 106.666 10.2203 105.72C10.2203 104.773 9.45767 104.006 8.51695 104.006H3.40678V28.1387H63.5932V104.006ZM63.5932 24.7109H3.40678V19.5693C3.40678 16.7341 5.69909 14.4277 8.51695 14.4277H58.4831C61.3009 14.4277 63.5932 16.7341 63.5932 19.5693V24.7109Z" fill="#91B4E7"/>
<path d="M40.3133 17.8555H33.4998C32.5591 17.8555 31.7964 18.6228 31.7964 19.5693C31.7964 20.5158 32.5591 21.2832 33.4998 21.2832H40.3133C41.2541 21.2832 42.0167 20.5158 42.0167 19.5693C42.0167 18.6228 41.2541 17.8555 40.3133 17.8555Z" fill="#91B4E7"/>
<path d="M33.4998 110.861C30.682 110.861 28.3896 113.168 28.3896 116.003C28.3896 118.838 30.682 121.145 33.4998 121.145C36.3177 121.145 38.61 118.838 38.61 116.003C38.61 113.168 36.3177 110.861 33.4998 110.861ZM33.4998 117.717C32.5605 117.717 31.7964 116.948 31.7964 116.003C31.7964 115.058 32.5605 114.289 33.4998 114.289C34.4392 114.289 35.2032 115.058 35.2032 116.003C35.2032 116.948 34.4392 117.717 33.4998 117.717Z" fill="#91B4E7"/>
<path d="M26.6863 21.2832C27.6271 21.2832 28.3897 20.5159 28.3897 19.5693C28.3897 18.6228 27.6271 17.8555 26.6863 17.8555C25.7455 17.8555 24.9829 18.6228 24.9829 19.5693C24.9829 20.5159 25.7455 21.2832 26.6863 21.2832Z" fill="#91B4E7"/>
</svg>
