<svg width="110" height="117" viewBox="0 0 110 117" fill="none" xmlns="http://www.w3.org/2000/svg">
<path fill-rule="evenodd" clip-rule="evenodd" d="M109.157 49.396C108.623 48.9622 107.922 48.7943 107.252 48.9389L72.5763 56.4005L68.6871 55.5641L78.9488 34.8915C78.9656 34.8576 78.9816 34.8236 78.9967 34.7897C80.3741 31.636 81.0726 28.2806 81.0726 24.8154C81.0726 11.1321 70.0051 0 56.4001 0C42.7951 0 31.7267 11.1321 31.7267 24.8154C31.7267 28.2806 32.4251 31.636 33.8035 34.7897C33.8186 34.8236 33.8337 34.8576 33.8505 34.8915L41.1744 49.6432L37.8994 48.9389C37.8693 48.9318 37.8382 48.9291 37.8071 48.9247C37.7628 48.9166 37.7193 48.9086 37.6749 48.9032C37.6341 48.8988 37.5941 48.8979 37.5542 48.8952C37.5098 48.8925 37.4663 48.889 37.4228 48.889C37.3811 48.889 37.3403 48.8925 37.2986 48.8943C37.256 48.897 37.2134 48.8988 37.1717 48.9032C37.1282 48.9086 37.0856 48.9166 37.043 48.9238C37.011 48.9291 36.98 48.9318 36.948 48.938L1.79637 56.5032C0.749078 56.7281 0 57.66 0 58.7374V77.5855C0 78.8477 1.01711 79.8707 2.27209 79.8707C3.52706 79.8707 4.54417 78.8477 4.54417 77.5855V60.5852L35.1516 53.9993V105.303L4.54417 111.889V95.8668C4.54417 94.6046 3.52706 93.5816 2.27209 93.5816C1.01711 93.5816 0 94.6046 0 95.8668V114.715C0 115.405 0.309749 116.058 0.843157 116.491C1.25142 116.823 1.75643 117 2.27209 117C2.43007 117 2.58982 116.983 2.7478 116.949L37.4237 109.488L72.1005 116.949C72.113 116.952 72.1254 116.954 72.1378 116.955C72.1884 116.965 72.239 116.973 72.2896 116.979C72.3127 116.982 72.3349 116.986 72.3579 116.988C72.4298 116.996 72.5026 117 72.5763 117C72.649 117 72.7218 116.996 72.7937 116.988C72.8168 116.986 72.8399 116.982 72.8621 116.979C72.9126 116.973 72.9632 116.965 73.0129 116.955C73.0254 116.953 73.0387 116.952 73.0511 116.949L108.203 109.385C109.251 109.159 110 108.228 110 107.151V88.3025C110 87.0404 108.983 86.0174 107.728 86.0174C106.473 86.0174 105.456 87.0404 105.456 88.3025V105.302L74.8484 111.889V60.5852L105.456 53.9993V70.0213C105.456 71.2835 106.473 72.3064 107.728 72.3064C108.983 72.3064 110 71.2835 110 70.0213V51.1732C110 50.4832 109.69 49.8307 109.157 49.396ZM36.2708 24.8154C36.2708 13.652 45.3006 4.57031 56.4001 4.57031C67.4996 4.57031 76.5293 13.652 76.5293 24.8154C76.5293 27.6254 75.9666 30.3453 74.8581 32.9009L56.4001 70.0838L37.9421 32.9009C36.8326 30.3453 36.2708 27.6254 36.2708 24.8154ZM39.6958 53.9993L43.7714 54.8759L54.3676 76.2198C54.7519 76.9946 55.5392 77.4846 56.4001 77.4846C57.261 77.4846 58.0482 76.9946 58.4334 76.2198L66.5907 59.7863L70.3042 60.5852V111.889L39.6967 105.302V53.9993H39.6958Z" fill="#91B4E7"/>
<path fill-rule="evenodd" clip-rule="evenodd" d="M71.0098 24.8155C71.0098 16.713 64.4563 10.1208 56.4001 10.1208C48.344 10.1208 41.7896 16.713 41.7896 24.8155C41.7896 32.918 48.344 39.5092 56.4001 39.5092C64.4563 39.5092 71.0098 32.918 71.0098 24.8155ZM46.3337 24.8155C46.3337 19.2329 50.8495 14.6912 56.4001 14.6912C61.9508 14.6912 66.4665 19.2329 66.4665 24.8155C66.4665 30.3971 61.9508 34.9389 56.4001 34.9389C50.8495 34.9389 46.3337 30.3971 46.3337 24.8155Z" fill="#91B4E7"/>
<path fill-rule="evenodd" clip-rule="evenodd" d="M2.27209 89.0113C3.52351 89.0113 4.54417 87.9847 4.54417 86.7261C4.54417 85.4675 3.52351 84.441 2.27209 84.441C1.02066 84.441 0 85.4675 0 86.7261C0 87.9847 1.02066 89.0113 2.27209 89.0113Z" fill="#91B4E7"/>
<path fill-rule="evenodd" clip-rule="evenodd" d="M107.728 76.8767C106.477 76.8767 105.456 77.9032 105.456 79.1619C105.456 80.4205 106.477 81.447 107.728 81.447C108.979 81.447 110 80.4205 110 79.1619C110 77.9032 108.979 76.8767 107.728 76.8767Z" fill="#91B4E7"/>
</svg>
