<svg width="117" height="117" viewBox="0 0 117 117" fill="none" xmlns="http://www.w3.org/2000/svg">
<path d="M108.714 101.838C107.767 101.838 107 102.612 107 103.567V105.758L29.2251 46.1093H103.918C104.864 46.1093 105.632 45.3354 105.632 44.3809C105.632 43.4264 104.864 42.6525 103.918 42.6525H24.1401C23.4045 42.6525 22.751 43.1259 22.5161 43.8287C22.2812 44.5316 22.5172 45.3076 23.1027 45.7565L106.098 109.409C106.879 110.008 107.193 111.04 106.88 111.977C106.567 112.914 105.697 113.543 104.717 113.543H13.082C12.1355 113.543 11.3682 114.317 11.3682 115.272C11.3682 116.226 12.1355 117 13.082 117H104.717C107.17 117 109.344 115.425 110.128 113.081C110.241 112.75 110.407 112.009 110.427 111.284V103.566C110.427 102.612 109.66 101.838 108.714 101.838Z" fill="#91B4E7"/>
<path d="M19.5271 83.9807C19.5271 80.3967 16.6359 77.481 13.0823 77.481C9.52863 77.481 6.63745 80.3967 6.63745 83.9807C6.63745 87.5645 9.52863 90.4802 13.0823 90.4802C16.6359 90.4802 19.5271 87.5643 19.5271 83.9807ZM10.065 83.9807C10.065 82.303 11.4185 80.9378 13.082 80.9378C14.7456 80.9378 16.0991 82.3028 16.0991 83.9807C16.0991 85.6584 14.7456 87.0234 13.082 87.0234C11.4185 87.0234 10.065 85.6582 10.065 83.9807Z" fill="#91B4E7"/>
<path d="M11.8545 108.416C12.3549 108.752 12.0729 108.823 13.1211 108.94H66.6882C67.6347 108.94 68.402 108.166 68.402 107.211C68.402 106.257 67.6347 105.483 66.6882 105.483H16.633C20.0596 100.891 26.1644 91.65 26.1644 84.0863C26.1644 76.8115 20.2956 70.893 13.0821 70.893C5.86851 70.893 0 76.8115 0 84.0863C0 94.377 11.3006 107.774 11.7816 108.339C11.8047 108.366 11.83 108.39 11.8545 108.416ZM13.0823 74.35C18.4058 74.35 22.7368 78.7178 22.7368 84.0865C22.7368 91.196 15.9854 100.703 13.0823 104.461C10.1792 100.702 3.42773 91.1958 3.42773 84.0863C3.42773 78.7176 7.75879 74.35 13.0823 74.35Z" fill="#91B4E7"/>
<path d="M110.363 13.0875C110.363 9.50372 107.472 6.58801 103.918 6.58801C100.364 6.58801 97.4731 9.50372 97.4731 13.0875C97.4731 16.6713 100.364 19.587 103.918 19.587C107.472 19.587 110.363 16.6713 110.363 13.0875ZM100.901 13.0875C100.901 11.4098 102.254 10.0448 103.918 10.0448C105.581 10.0448 106.935 11.4098 106.935 13.0875C106.935 14.7652 105.581 16.1302 103.918 16.1302C102.254 16.1302 100.901 14.7652 100.901 13.0875Z" fill="#91B4E7"/>
<path d="M92.6204 15.2074C91.6992 15.4266 91.1286 16.3574 91.3457 17.2866C92.8774 23.8345 97.5396 30.8007 100.369 34.5919H10.0003V32.9444C10.0003 31.9898 9.23296 31.2159 8.28645 31.2159C7.33994 31.2159 6.57258 31.9898 6.57258 32.9444V40.2859C6.51408 41.8115 7.34039 43.7893 8.82643 44.9344L87.7749 105.483H74.6961C73.7495 105.483 72.9822 106.257 72.9822 107.211C72.9822 108.166 73.7495 108.94 74.6961 108.94H92.8598C93.5954 108.94 94.249 108.466 94.4839 107.763C94.7188 107.061 94.4828 106.285 93.8973 105.836L10.9016 42.183C10.3166 41.7343 9.99369 41.0421 10.0005 40.3288V40.3272C10.0031 40.0896 10.0421 39.8494 10.1203 39.6155C10.4336 38.6785 11.3029 38.0489 12.2834 38.0489H103.918C104.301 38.0489 104.879 37.8742 105.219 37.4463C105.699 36.8807 117 23.484 117 13.1933C117 5.91853 111.131 0 103.918 0C98.5698 0 93.8119 3.22751 91.7963 8.22284C91.4394 9.10709 91.861 10.1156 92.7378 10.4753C93.6151 10.8355 94.6146 10.4101 94.9713 9.52583C96.459 5.83902 99.9708 3.45681 103.918 3.45681C109.241 3.45681 113.573 7.82461 113.573 13.1933C113.573 20.3028 106.821 29.8097 103.918 33.5682C101.452 30.375 96.2113 23.0304 94.682 16.4929C94.4647 15.564 93.5422 14.989 92.6204 15.2074Z" fill="#91B4E7"/>
<path d="M108.714 94.7252C107.767 94.7252 107 95.499 107 96.4536V97.6059C107 98.5604 107.767 99.3343 108.714 99.3343C109.66 99.3343 110.427 98.5604 110.427 97.6059V96.4536C110.427 95.499 109.66 94.7252 108.714 94.7252Z" fill="#91B4E7"/>
<path d="M108.714 87.5811C107.767 87.5811 107 88.355 107 89.3095V90.4618C107 91.4163 107.767 92.1902 108.714 92.1902C109.66 92.1902 110.427 91.4163 110.427 90.4618V89.3095C110.427 88.355 109.66 87.5811 108.714 87.5811Z" fill="#91B4E7"/>
<path d="M108.714 70.6223C104.727 70.6223 101.483 73.8933 101.483 77.9138C101.483 81.9343 104.727 85.2054 108.714 85.2054C112.7 85.2054 115.944 81.9343 115.944 77.9138C115.944 73.8933 112.7 70.6223 108.714 70.6223ZM108.714 81.7488C106.617 81.7488 104.911 80.0285 104.911 77.9141C104.911 75.7997 106.617 74.0793 108.714 74.0793C110.81 74.0793 112.516 75.7997 112.516 77.9141C112.516 80.0285 110.81 81.7488 108.714 81.7488Z" fill="#91B4E7"/>
<path d="M6.57251 26.9837C6.57251 27.9382 7.33987 28.7121 8.28638 28.7121C9.23289 28.7121 10.0002 27.9382 10.0002 26.9837V25.8314C10.0002 24.8769 9.23289 24.103 8.28638 24.103C7.33987 24.103 6.57251 24.8769 6.57251 25.8314V26.9837Z" fill="#91B4E7"/>
<path d="M8.28638 21.568C9.23289 21.568 10.0002 20.7942 10.0002 19.8396V18.6873C10.0002 17.7328 9.23289 16.9589 8.28638 16.9589C7.33987 16.9589 6.57251 17.7328 6.57251 18.6873V19.8396C6.57251 20.7942 7.33987 21.568 8.28638 21.568Z" fill="#91B4E7"/>
<path d="M8.28645 14.5834C12.2731 14.5834 15.5167 11.3123 15.5167 7.2918C15.5167 3.27107 12.2731 0 8.28645 0C4.29976 0 1.05621 3.27107 1.05621 7.2918C1.05621 11.3123 4.29976 14.5834 8.28645 14.5834ZM8.28645 3.45681C10.3831 3.45681 12.0889 5.17715 12.0889 7.2918C12.0889 9.40622 10.3831 11.1266 8.28645 11.1266C6.18982 11.1266 4.48395 9.40622 4.48395 7.2918C4.48395 5.17715 6.18982 3.45681 8.28645 3.45681Z" fill="#91B4E7"/>
<path d="M36.9612 99.6417C36.9612 100.596 37.7285 101.37 38.675 101.37H55.4611C56.1544 101.37 56.7792 100.949 57.0445 100.303C57.3098 99.6571 57.1631 98.9139 56.6729 98.4196L52.6358 94.3481C51.9664 93.6731 50.8812 93.6731 50.2121 94.3481C49.5428 95.0231 49.5428 96.1176 50.2121 96.7923L51.3236 97.9133H38.6753C37.7285 97.9133 36.9612 98.6871 36.9612 99.6417Z" fill="#91B4E7"/>
<path d="M71.4215 63.406C71.2976 62.4596 70.4366 61.7929 69.4979 61.9191L63.8375 62.6741C63.1504 62.7656 62.5855 63.2657 62.4066 63.9411C62.2276 64.6166 62.4696 65.334 63.0199 65.7594L76.343 76.0571C76.6541 76.2974 77.0206 76.4138 77.3844 76.4138C77.8992 76.4138 78.4084 76.1806 78.7459 75.7367C79.3217 74.979 79.1794 73.8942 78.428 73.3135L68.3889 65.5543L69.9473 65.3465C70.8856 65.2209 71.5458 64.3523 71.4215 63.406Z" fill="#91B4E7"/>
<path d="M50.1069 30.064H66.893C67.5863 30.064 68.2111 29.6429 68.4764 28.9969C68.7417 28.351 68.595 27.6078 68.1048 27.1134L64.0674 23.042C63.3981 22.367 62.3129 22.367 61.6438 23.042C60.9745 23.717 60.9745 24.8114 61.6438 25.4862L62.7553 26.6071H50.1069C49.1604 26.6071 48.3931 27.381 48.3931 28.3355C48.3931 29.2901 49.1604 30.064 50.1069 30.064Z" fill="#91B4E7"/>
</svg>
