<svg width="127" height="117" viewBox="0 0 127 117" fill="none" xmlns="http://www.w3.org/2000/svg">
<path d="M2.48047 77.3954C3.85039 77.3954 4.96094 76.1482 4.96094 74.6097C4.96094 73.0712 3.85039 71.824 2.48047 71.824C1.11054 71.824 0 73.0712 0 74.6097C0 76.1482 1.11054 77.3954 2.48047 77.3954Z" fill="#91B4E7"/>
<path d="M70.3583 15.3189C69.917 14.4609 69.096 13.9288 68.2129 13.9288H14.8828C14.2305 13.9288 13.5905 14.2266 13.1291 14.745C12.6678 15.2635 12.4023 15.9819 12.4023 16.7145V32.5931C12.4023 33.3258 12.6675 34.0445 13.1291 34.5623C13.5905 35.0808 14.2305 35.3788 14.8828 35.3788H76.3985C77.2815 35.3788 78.105 34.844 78.5466 33.9832C78.9878 33.1252 78.9878 32.0552 78.5438 31.1975L70.3583 15.3189ZM17.3633 29.8074V19.5003H66.7814L72.0946 29.8074H17.3633Z" fill="#91B4E7"/>
<path d="M110.467 58.7801C111.701 58.1113 112.218 56.4457 111.622 55.0601C111.027 53.6748 109.544 53.0939 108.31 53.7625L94.4342 61.2856H31.5732L17.6972 53.7625C16.4637 53.0945 14.9806 53.6748 14.3848 55.0601C13.7895 56.4457 14.3067 58.111 15.5402 58.7801L28.5252 65.8199V90.1796L15.5405 97.2194C14.3067 97.8882 13.7895 99.5538 14.3851 100.939C14.8129 101.934 15.6985 102.514 16.6207 102.514C16.9824 102.514 17.3497 102.425 17.6975 102.237L31.5732 94.7142H94.4339L108.31 102.237C108.657 102.426 109.025 102.515 109.387 102.515C110.309 102.515 111.194 101.935 111.622 100.94C112.218 99.5541 111.7 97.8888 110.467 97.2197L97.4822 90.1799V65.8202L110.467 58.7801ZM92.5213 89.1428H33.4861V66.857H92.5213V89.1428Z" fill="#91B4E7"/>
<path d="M124.52 23.4C125.889 23.4 127 22.0829 127 20.5446V9.40179C127 7.86351 125.889 6.68571 124.52 6.68571H97.2344C95.8647 6.68571 94.7539 7.86351 94.7539 9.40179V20.5446C94.7539 22.0829 95.8647 23.4 97.2344 23.4H100.955V32.6511C99.3892 31.8602 97.8706 30.9351 96.4158 29.8709C91.2383 26.0807 87.1284 20.7942 84.4895 14.5384C84.3647 14.2425 83.8984 13.0683 83.856 12.965C80.6244 5.07808 73.5831 0 65.8314 0H12.4023C10.728 0 9.10332 0.367436 7.57535 1.09479C6.09699 1.79706 4.77242 2.79964 3.63364 4.08107C2.49535 5.35971 1.5999 6.84729 0.974824 8.50757C0.327174 10.2236 0 12.0482 0 13.9286V62.0741C0 63.609 1.11373 64.8598 2.48047 64.8598C3.84969 64.8598 4.96094 63.609 4.96094 62.0741V13.9286C4.96838 9.32936 8.30709 5.57951 12.4023 5.57143H65.8314C71.5945 5.57143 76.833 9.31153 79.2852 15.139C79.3398 15.2682 79.8029 16.4296 79.9123 16.6931C82.937 23.9814 87.6937 30.1389 93.7071 34.5401C96.2722 36.4168 99.0072 37.9258 101.856 39.0554C102.119 39.1599 103.285 39.5872 103.561 39.6803C107.118 40.8843 110.83 41.5071 114.598 41.5071C118.693 41.5152 122.032 45.2651 122.039 49.8643V103.071C122.032 107.671 118.693 111.42 114.598 111.429H12.4023C8.30709 111.42 4.96838 107.671 4.96094 103.071V87.1455C4.96094 85.6075 3.84721 84.3598 2.48047 84.3598C1.11373 84.3598 0.00248047 85.6075 0 87.1396V87.1455V103.071C0 104.952 0.327174 106.776 0.974824 108.492C1.60015 110.153 2.49535 111.64 3.63389 112.919C4.77267 114.198 6.09724 115.203 7.5756 115.905C9.10332 116.632 10.728 117 12.4023 117H114.598C116.272 117 117.897 116.632 119.425 115.905C120.903 115.203 122.228 114.197 123.366 112.919C124.505 111.64 125.4 110.152 126.025 108.492C126.673 106.776 127 104.952 127 103.071V49.8643C127 47.9839 126.673 46.1593 126.025 44.4433C125.4 42.783 124.504 41.2954 123.366 40.0165C122.593 39.1468 121.733 38.4089 120.799 37.8027V23.4H124.52ZM115.838 36.004C115.428 35.9586 115.014 35.9357 114.598 35.9357C111.643 35.9357 108.728 35.4939 105.916 34.6415V23.4H115.838V36.004ZM99.7148 17.8286V12.2571H122.039V17.8286H99.7148Z" fill="#91B4E7"/>
</svg>
