<svg width="117" height="117" viewBox="0 0 117 117" fill="none" xmlns="http://www.w3.org/2000/svg">
<path d="M86.7358 0H38.3338C34.9933 0 32.2759 2.62656 32.2759 5.85595V99.4445C32.2759 102.674 34.993 105.3 38.3338 105.3H86.7358C90.0763 105.3 92.7937 102.674 92.7937 99.4445V5.85595C92.7937 2.62656 90.0763 0 86.7358 0ZM88.7591 99.4443C88.7591 100.523 87.8514 101.4 86.7358 101.4H38.3338C37.2182 101.4 36.3105 100.523 36.3105 99.4443V5.85595C36.3105 4.77759 37.2182 3.90008 38.3338 3.90008H86.7358C87.8514 3.90008 88.7591 4.77759 88.7591 5.85595V99.4443Z" fill="#91B4E7"/>
<path d="M62.5348 7.79993C54.7481 7.79993 48.4141 13.923 48.4141 21.4499C48.4141 28.977 54.7483 35.0998 62.5348 35.0998C70.3214 35.0998 76.6555 28.9767 76.6555 21.4499C76.6555 13.923 70.3212 7.79993 62.5348 7.79993ZM62.5348 31.2C56.9733 31.2 52.4484 26.8262 52.4484 21.4499C52.4484 16.0738 56.973 11.6998 62.5348 11.6998C68.0962 11.6998 72.6211 16.0736 72.6211 21.4499C72.6209 26.8262 68.0962 31.2 62.5348 31.2Z" fill="#91B4E7"/>
<path d="M62.5348 70.2002C54.7481 70.2002 48.4141 76.3233 48.4141 83.8501C48.4141 91.377 54.7483 97.5001 62.5348 97.5001C70.3214 97.5001 76.6555 91.377 76.6555 83.8501C76.6555 76.3233 70.3212 70.2002 62.5348 70.2002ZM62.5348 93.6002C56.9733 93.6002 52.4484 89.2264 52.4484 83.8501C52.4484 78.4738 56.973 74.1 62.5348 74.1C68.0962 74.1 72.6211 78.4738 72.6211 83.8501C72.6211 89.2264 68.0962 93.6002 62.5348 93.6002Z" fill="#91B4E7"/>
<path d="M62.5348 39.0001C54.7481 39.0001 48.4141 45.1232 48.4141 52.6501C48.4141 60.1769 54.7483 66.3 62.5348 66.3C70.3214 66.3 76.6555 60.1769 76.6555 52.6501C76.6555 45.1232 70.3212 39.0001 62.5348 39.0001ZM62.5348 62.4002C56.9733 62.4002 52.4484 58.0264 52.4484 52.6501C52.4484 47.274 56.973 42.9 62.5348 42.9C68.0962 42.9 72.6211 47.2738 72.6211 52.6501C72.6209 58.0261 68.0962 62.4002 62.5348 62.4002Z" fill="#91B4E7"/>
<path d="M114.983 13.6499H90.7759C89.6625 13.6499 88.7587 14.5235 88.7587 15.5998V37.0499C88.7587 38.1263 89.6625 38.9999 90.7759 38.9999C91.8893 38.9999 92.7931 38.1263 92.7931 37.0499C92.7931 32.7481 96.4121 29.25 100.862 29.25H102.879C110.666 29.25 117 23.1269 117 15.6001C117 14.5235 116.097 13.6499 114.983 13.6499ZM102.879 25.3499H100.862C97.7657 25.3499 94.9355 26.4809 92.7933 28.3373V17.55H112.762C111.826 21.9939 107.751 25.3499 102.879 25.3499Z" fill="#91B4E7"/>
<path d="M114.983 44.8502H90.7759C89.6625 44.8502 88.7587 45.7238 88.7587 46.8001V68.2503C88.7587 69.3266 89.6625 70.2002 90.7759 70.2002C91.8893 70.2002 92.7931 69.3266 92.7931 68.2503C92.7931 63.9485 96.4121 60.4503 100.862 60.4503H102.879C110.666 60.4503 117 54.3272 117 46.8004C117 45.7238 116.097 44.8502 114.983 44.8502ZM102.879 56.5502H100.862C97.7657 56.5502 94.9355 57.6812 92.7933 59.5376V48.7503H112.762C111.826 53.1943 107.751 56.5502 102.879 56.5502Z" fill="#91B4E7"/>
<path d="M114.983 76.0502H90.7759C89.6625 76.0502 88.7587 76.9238 88.7587 78.0001V99.4502C88.7587 100.527 89.6625 101.4 90.7759 101.4C91.8893 101.4 92.7931 100.527 92.7931 99.4502C92.7931 95.1484 96.4121 91.6503 100.862 91.6503H102.879C110.666 91.6503 117 85.5272 117 78.0003C117 76.9238 116.097 76.0502 114.983 76.0502ZM102.879 87.7502H100.862C97.7657 87.7502 94.9355 88.8811 92.7933 90.7376V79.9503H112.762C111.826 84.3942 107.751 87.7502 102.879 87.7502Z" fill="#91B4E7"/>
<path d="M14.1207 0H2.01717C0.903745 0 0 0.873617 0 1.94993V115.05C0 116.126 0.903745 117 2.01717 117H14.1207C15.2341 117 16.1379 116.126 16.1379 115.05V1.94993C16.1379 0.873617 15.2341 0 14.1207 0ZM12.1033 113.1H4.03435V3.90008H12.1033V113.1Z" fill="#91B4E7"/>
<path d="M34.2932 19.5H14.1208C13.0073 19.5 12.1036 20.3736 12.1036 21.4499V29.2501C12.1036 30.3264 13.0073 31.2 14.1208 31.2H34.2932C35.4066 31.2 36.3104 30.3264 36.3104 29.2501V21.4502C36.3104 20.3736 35.4066 19.5 34.2932 19.5ZM32.276 27.3002H16.1379V23.4001H32.276V27.3002Z" fill="#91B4E7"/>
<path d="M34.2932 74.1002H14.1208C13.0073 74.1002 12.1036 74.9738 12.1036 76.0501V83.8501C12.1036 84.9264 13.0073 85.8 14.1208 85.8H34.2932C35.4066 85.8 36.3104 84.9264 36.3104 83.8501V76.0501C36.3104 74.9738 35.4066 74.1002 34.2932 74.1002ZM32.276 81.9002H16.1379V78.0001H32.276V81.9002Z" fill="#91B4E7"/>
<path d="M62.5351 13.6499C58.0849 13.6499 54.4661 17.1483 54.4661 21.4498C54.4661 22.5262 55.3699 23.3998 56.4833 23.3998C57.5967 23.3998 58.5005 22.5264 58.5005 21.4501C58.5005 19.2993 60.3099 17.55 62.5351 17.55C63.6485 17.55 64.5522 16.6764 64.5522 15.6001C64.5522 14.5237 63.6485 13.6499 62.5351 13.6499Z" fill="#91B4E7"/>
<path d="M62.5351 44.8502C58.0849 44.8502 54.4661 48.3486 54.4661 52.6502C54.4661 53.7265 55.3699 54.6001 56.4833 54.6001C57.5967 54.6001 58.5005 53.7265 58.5005 52.6502C58.5005 50.4994 60.3099 48.7501 62.5351 48.7501C63.6485 48.7501 64.5522 47.8765 64.5522 46.8001C64.5522 45.7238 63.6485 44.8502 62.5351 44.8502Z" fill="#91B4E7"/>
<path d="M62.5351 76.0502C58.0849 76.0502 54.4661 79.5485 54.4661 83.8501C54.4661 84.9264 55.3699 85.8 56.4833 85.8C57.5967 85.8 58.5005 84.9264 58.5005 83.8501C58.5005 81.6993 60.3099 79.95 62.5351 79.95C63.6485 79.95 64.5522 79.0764 64.5522 78.0001C64.5522 76.9238 63.6485 76.0502 62.5351 76.0502Z" fill="#91B4E7"/>
</svg>
