<svg width="117" height="124" viewBox="0 0 117 124" fill="none" xmlns="http://www.w3.org/2000/svg">
<circle opacity="0.6" cx="39.5" cy="84.5" r="39.5" fill="#D1EBFF"/>
<path d="M116.037 14.3366C115.968 14.2706 102.225 1.0352 102.225 1.0352C101.699 0.526138 101.156 0 100.141 0H44.813C43.1969 0 41.882 1.32758 41.882 2.95953V12.0476L22.3816 15.4232C20.8185 15.7002 19.7674 17.2107 20.0382 18.7875L21.0279 24.6147C14.6895 26.7687 8.18207 28.9891 1.89993 31.2678C0.415495 31.8159 -0.363516 33.4827 0.166184 34.9907L12.6626 70.0703C12.9139 70.7762 13.5728 71.2158 14.2754 71.2158C14.4679 71.2158 14.6639 71.1828 14.8554 71.1131C15.7462 70.7896 16.2085 69.7982 15.8881 68.8987L3.57656 34.3379C9.49512 32.198 15.6244 30.1036 21.6145 28.0676L27.5035 62.7385L34.28 102.668C34.5247 104.077 35.7516 105.08 37.1364 105.08C37.2932 105.08 37.4522 105.067 37.6117 105.041L55.9652 101.86L70.3069 99.3776L48.737 107.207L31.7274 113.383L18.5174 76.2785C18.1972 75.379 17.2158 74.9122 16.3248 75.2355C15.434 75.5588 14.9717 76.5501 15.2919 77.4496L28.6893 115.081C29.1178 116.264 30.2279 117 31.4013 117C31.7256 117 32.0549 116.944 32.3757 116.825L49.8963 110.464L89.6795 96.0244L97.2798 94.7088H114.069C115.685 94.7088 117 93.3782 117 91.7426V16.2868C117 15.2509 116.444 14.7224 116.037 14.3366ZM111.496 14.7464H102.92L102.708 14.7473C102.297 14.7501 101.336 14.7573 101.092 14.5126C101.036 14.4561 100.97 14.2673 100.97 13.9168L100.95 4.59056L111.496 14.7464ZM113.572 91.2469H45.3097V57.5171C45.3097 56.5613 44.5424 55.7864 43.5959 55.7864C42.6494 55.7864 41.882 56.5613 41.882 57.5171V91.7421C41.882 93.3775 43.1969 94.7084 44.813 94.7084H76.9907L55.3857 98.4481L37.5656 101.536L30.8819 62.1533L23.5079 18.74L41.8818 15.5594V49.4865C41.8818 50.4424 42.6491 51.2173 43.5956 51.2173C44.5422 51.2173 45.3095 50.4424 45.3095 49.4865V3.46121H97.5197L97.5421 13.9207C97.5421 15.1886 97.924 16.2141 98.6769 16.9691C99.8339 18.1292 101.469 18.2099 102.485 18.2099C102.572 18.2099 102.655 18.2092 102.732 18.2088L113.572 18.2081V91.2469Z" fill="#91B4E7"/>
<path d="M53.5712 26.8737C53.5712 27.8295 54.3385 28.6044 55.285 28.6044H104.287C105.234 28.6044 106.001 27.8295 106.001 26.8737C106.001 25.9178 105.234 25.1429 104.287 25.1429H55.285C54.3385 25.1429 53.5712 25.9178 53.5712 26.8737Z" fill="#91B4E7"/>
<path d="M104.287 37.4385H55.285C54.3385 37.4385 53.5712 38.2134 53.5712 39.1692C53.5712 40.125 54.3385 40.8999 55.285 40.8999H104.287C105.234 40.8999 106.001 40.125 106.001 39.1692C106.001 38.2134 105.234 37.4385 104.287 37.4385Z" fill="#91B4E7"/>
<path d="M104.287 49.7339H55.285C54.3385 49.7339 53.5712 50.5088 53.5712 51.4646C53.5712 52.4204 54.3385 53.1953 55.285 53.1953H104.287C105.234 53.1953 106.001 52.4204 106.001 51.4646C106.001 50.5088 105.234 49.7339 104.287 49.7339Z" fill="#91B4E7"/>
<path d="M104.287 62.0294H55.285C54.3385 62.0294 53.5712 62.8043 53.5712 63.7601C53.5712 64.716 54.3385 65.4909 55.285 65.4909H104.287C105.234 65.4909 106.001 64.716 106.001 63.7601C106.001 62.8043 105.234 62.0294 104.287 62.0294Z" fill="#91B4E7"/>
<path d="M104.287 74.3251H55.285C54.3385 74.3251 53.5712 75.1 53.5712 76.0558C53.5712 77.0116 54.3385 77.7865 55.285 77.7865H104.287C105.234 77.7865 106.001 77.0116 106.001 76.0558C106.001 75.1 105.234 74.3251 104.287 74.3251Z" fill="#91B4E7"/>
</svg>
