<svg width="95" height="37" viewBox="0 0 95 37" fill="none" xmlns="http://www.w3.org/2000/svg">
<path d="M42.2222 10.5714H50.1388V13.2143H42.2222V17.1786H55.4166V6.60714H47.4999V3.96429H55.4166V0H42.2222V10.5714Z" fill="#2B409E"/>
<path d="M79.1667 0H73.8889V17.1786H79.1667V0Z" fill="#2B409E"/>
<path d="M65.9721 2.64286H64.6526V5.28571H63.3332V0H58.0554V17.1786H63.3332V11.8929H64.6526V14.5357H65.9721V17.1786H71.2499V13.2143H69.9304V10.5714H68.611V6.60714H69.9304V3.96429H71.2499V0H65.9721V2.64286Z" fill="#2B409E"/>
<path d="M94.9999 3.96429V0H81.8054V17.1786H87.0832V10.5714H94.9999V6.60714H87.0832V3.96429H94.9999Z" fill="#2B409E"/>
<path d="M44.8611 19.8214V22.4643H42.2222V37H47.4999V33.0357H50.1388V37H55.4166V19.8214H44.8611ZM47.4999 29.0714V23.7857H50.1388V29.0714H47.4999Z" fill="#C7130C"/>
<path d="M58.0554 37H63.3332V33.0357H68.611V30.3928H71.2499V19.8214H58.0554V37ZM65.9721 29.0714H63.3332V23.7857H65.9721V29.0714Z" fill="#C7130C"/>
<path d="M73.8889 19.8214V37H79.1667V33.0357H84.4445V30.3928H87.0834V19.8214H73.8889ZM81.8056 29.0714H79.1667V23.7857H81.8056V29.0714Z" fill="#C7130C"/>
<path d="M25.1223 0H23.6445V1.48H25.1223V0Z" fill="#C7130C"/>
<path d="M17.7334 2.96H19.2112H20.6889H22.1667V1.48V0H20.6889V1.48H19.2112H17.7334H16.2556V2.96H14.7778V1.48V0H13.3V1.48H11.8223V2.96H13.3V4.44H11.8223V5.92H13.3H14.7778V4.44H16.2556V5.92H17.7334V4.44V2.96Z" fill="#C7130C"/>
<path d="M20.689 4.43994H19.2112V5.91994H20.689V4.43994Z" fill="#C7130C"/>
<path d="M14.7778 7.40004V8.88004V10.36H16.2556V8.88004V7.40004V5.92004H14.7778V7.40004Z" fill="#C7130C"/>
<path d="M19.2112 5.92004H17.7334V7.40004H19.2112V5.92004Z" fill="#C7130C"/>
<path d="M13.3 8.88002V7.40002H11.8223V8.88002V10.36H13.3V8.88002Z" fill="#C7130C"/>
<path d="M20.689 10.3599H22.1667V8.87994H23.6445V7.39994H25.1223V5.91994V4.43994H23.6445H22.1667V5.91994V7.39994H20.689H19.2112V8.87994H20.689V10.3599Z" fill="#C7130C"/>
<path d="M23.6445 11.84H25.1223V10.36V8.88H23.6445V10.36V11.84Z" fill="#C7130C"/>
<path d="M5.91111 11.84H4.43333H2.95556H1.47778H0V13.32V14.8H1.47778H2.95556V13.32H4.43333V14.8H2.95556V16.28V17.76H4.43333H5.91111V16.28V14.8V13.32H7.38889V11.84H5.91111Z" fill="#C7130C"/>
<path d="M19.2112 11.84V10.36V8.88H17.7334V10.36V11.84V13.32H19.2112H20.689V11.84H19.2112Z" fill="#C7130C"/>
<path d="M32.5112 11.84H31.0334V13.32H32.5112V11.84Z" fill="#C7130C"/>
<path d="M35.4665 11.84H33.9888V13.32H35.4665V11.84Z" fill="#C7130C"/>
<path d="M36.9443 13.3199H35.4666V14.7999H36.9443V13.3199Z" fill="#C7130C"/>
<path d="M22.1667 16.28H23.6445V14.8H25.1223V16.28H23.6445V17.76H25.1223H26.6001V16.28H28.0779V14.8H26.6001V13.32V11.84H25.1223V13.32H23.6445V11.84H22.1667V13.32H20.689V14.8H22.1667V16.28Z" fill="#C7130C"/>
<path d="M29.5557 16.28H31.0334V14.8V13.32H29.5557V11.84H28.0779V13.32V14.8H29.5557V16.28Z" fill="#C7130C"/>
<path d="M33.9888 14.7999H32.511V16.2799H33.9888V14.7999Z" fill="#C7130C"/>
<path d="M13.3 17.76V19.24H14.7778V17.76H16.2556V19.24H17.7334V17.76V16.28H19.2111H20.6889V14.8H19.2111H17.7334H16.2556V16.28H14.7778V14.8V13.32H16.2556V11.84H14.7778H13.3H11.8222H10.3445H8.86669V13.32H10.3445V14.8H8.86669V13.32H7.38892V14.8V16.28H8.86669H10.3445V17.76H11.8222H13.3ZM11.8222 14.8V13.32H13.3V14.8V16.28H11.8222V14.8Z" fill="#C7130C"/>
<path d="M22.1667 16.28H20.689V17.76H22.1667V16.28Z" fill="#C7130C"/>
<path d="M0 17.76V19.24V20.72V22.2V23.68V25.16H1.47778V23.68V22.2V20.72H2.95556H4.43333V19.24H2.95556V17.76H1.47778H0Z" fill="#C7130C"/>
<path d="M10.3445 17.76H8.8667V19.24H10.3445V17.76Z" fill="#C7130C"/>
<path d="M20.689 17.76H19.2112V19.24H20.689V17.76Z" fill="#C7130C"/>
<path d="M23.6445 17.76H22.1667V19.24H23.6445V17.76Z" fill="#C7130C"/>
<path d="M33.9888 17.76V19.24H35.4665H36.9443V17.76H35.4665H33.9888Z" fill="#C7130C"/>
<path d="M16.2556 19.24H14.7778V20.72H16.2556V19.24Z" fill="#C7130C"/>
<path d="M19.2112 19.24H17.7334V20.72H19.2112V19.24Z" fill="#C7130C"/>
<path d="M13.3 22.2V23.68H14.7778V22.2V20.72H13.3H11.8222H10.3445H8.86669V19.24H7.38891H5.91113V20.72H7.38891V22.2H8.86669H10.3445V23.68H11.8222V22.2H13.3Z" fill="#C7130C"/>
<path d="M33.9888 20.72H32.511V22.2H33.9888V23.68H35.4665V25.16V26.64H33.9888H32.511V28.12H33.9888H35.4665H36.9443V26.64V25.16V23.68V22.2V20.72H35.4665H33.9888Z" fill="#C7130C"/>
<path d="M17.7334 23.6801V25.1601H19.2112V23.6801V22.2001H17.7334V23.6801Z" fill="#C7130C"/>
<path d="M4.43334 23.6801H2.95557V25.1601H4.43334V23.6801Z" fill="#C7130C"/>
<path d="M7.38891 23.6801H5.91113V25.1601H7.38891H8.86669H10.3445V23.6801H8.86669H7.38891Z" fill="#C7130C"/>
<path d="M16.2556 23.6801H14.7778V25.1601H16.2556V23.6801Z" fill="#C7130C"/>
<path d="M13.3 25.1601V23.6801H11.8223V25.1601V26.6401V28.1201H13.3V26.6401V25.1601Z" fill="#C7130C"/>
<path d="M28.0776 26.64H26.5999V28.12H28.0776V26.64Z" fill="#C7130C"/>
<path d="M31.0334 26.64V25.16H32.5112V23.68H31.0334H29.5556H28.0779H26.6001V22.2H28.0779V20.72H29.5556V22.2H31.0334V20.72V19.24H32.5112V17.76H31.0334H29.5556H28.0779H26.6001V19.24H25.1223H23.6445V20.72H25.1223V22.2V23.68H23.6445H22.1667V22.2V20.72V19.24H20.689V20.72H19.2112V22.2H20.689V23.68V25.16H22.1667H23.6445V26.64V28.12V29.6V31.08H22.1667V32.56H23.6445H25.1223V31.08H26.6001V32.56H28.0779V31.08H29.5556V32.56V34.04H28.0779H26.6001H25.1223H23.6445V35.52H25.1223H26.6001H28.0779H29.5556H31.0334H32.5112V34.04H31.0334V32.56V31.08H32.5112V29.6V28.12H31.0334V26.64ZM29.5556 29.6H28.0779H26.6001H25.1223V28.12V26.64V25.16H26.6001H28.0779H29.5556V26.64V28.12V29.6Z" fill="#C7130C"/>
<path d="M22.1667 28.12V26.64H20.689V28.12V29.6V31.08H22.1667V29.6V28.12Z" fill="#C7130C"/>
<path d="M20.6889 34.04H22.1667V32.56H20.6889H19.2112V31.08V29.6H17.7334V28.12H19.2112V26.64H17.7334H16.2556V28.12H14.7778H13.3V29.6H11.8223V31.08V32.56V34.04V35.52V37H13.3H14.7778H16.2556V35.52V34.04V32.56V31.08H17.7334V32.56V34.04V35.52H19.2112V34.04H20.6889ZM14.7778 35.52H13.3V34.04H14.7778V35.52ZM14.7778 32.56H13.3V31.08H14.7778V32.56Z" fill="#C7130C"/>
<path d="M33.9888 32.5601H32.511V34.0401H33.9888V32.5601Z" fill="#C7130C"/>
<path d="M35.4665 34.04H36.9443V32.56V31.08H35.4665H33.9888V32.56H35.4665V34.04Z" fill="#C7130C"/>
<path d="M33.9888 35.52H32.511V37H33.9888H35.4665H36.9443V35.52H35.4665V34.04H33.9888V35.52Z" fill="#C7130C"/>
<path d="M20.689 35.52H19.2112V37H20.689H22.1667H23.6445V35.52H22.1667H20.689Z" fill="#C7130C"/>
<path d="M26.5999 0V10.36H36.9443V0H26.5999ZM35.4665 8.88H28.0776V1.48H35.4665V8.88Z" fill="#2B409E"/>
<path d="M33.9888 2.97327H29.5554V7.41327H33.9888V2.97327Z" fill="#2B409E"/>
<path d="M0 0V10.36H10.3444V0H0ZM8.86667 8.88H1.47778V1.48H8.86667V8.88Z" fill="#2B409E"/>
<path d="M7.3889 2.97327H2.95557V7.41327H7.3889V2.97327Z" fill="#2B409E"/>
<path d="M0 26.64V37H10.3444V26.64H0ZM8.86667 35.52H1.47778V28.12H8.86667V35.52Z" fill="#2B409E"/>
<path d="M7.3889 29.6H2.95557V34.04H7.3889V29.6Z" fill="#2B409E"/>
</svg>
