<svg width="110" height="43" viewBox="0 0 110 43" fill="none" xmlns="http://www.w3.org/2000/svg">
<path d="M48.8887 12.2857H58.0553V15.3571H48.8887V19.9643H64.1664V7.67857H54.9998V4.60714H64.1664V0H48.8887V12.2857Z" fill="#2B409E"/>
<path d="M91.6668 0H85.5557V19.9643H91.6668V0Z" fill="#2B409E"/>
<path d="M76.3883 3.07143H74.8606V6.14286H73.3328V0H67.2217V19.9643H73.3328V13.8214H74.8606V16.8929H76.3883V19.9643H82.4995V15.3571H80.9717V12.2857H79.4439V7.67857H80.9717V4.60714H82.4995V0H76.3883V3.07143Z" fill="#2B409E"/>
<path d="M109.999 4.60714V0H94.7217V19.9643H100.833V12.2857H109.999V7.67857H100.833V4.60714H109.999Z" fill="#2B409E"/>
<path d="M51.9442 23.0356V26.1071H48.8887V42.9999H54.9998V38.3928H58.0553V42.9999H64.1664V23.0356H51.9442ZM54.9998 33.7856V27.6428H58.0553V33.7856H54.9998Z" fill="#C7130C"/>
<path d="M67.2217 42.9999H73.3328V38.3928H79.4439V35.3214H82.4995V23.0356H67.2217V42.9999ZM76.3883 33.7856H73.3328V27.6428H76.3883V33.7856Z" fill="#C7130C"/>
<path d="M85.5557 23.0356V42.9999H91.6668V38.3928H97.7779V35.3214H100.833V23.0356H85.5557ZM94.7223 33.7856H91.6668V27.6428H94.7223V33.7856Z" fill="#C7130C"/>
<path d="M0 0.215C0 0.215 0 0 0.213889 0H10.1139C10.1139 0 10.3278 0 10.3278 0.215V10.1664C10.3278 10.1664 10.3278 10.3814 10.1139 10.3814H0.213889C0.213889 10.3814 0 10.3814 0 10.1664V0.215ZM1.68056 1.48964C1.68056 1.48964 1.46667 1.48964 1.46667 1.70464V8.69214C1.46667 8.69214 1.46667 8.90714 1.68056 8.90714H8.63194C8.63194 8.90714 8.84583 8.90714 8.84583 8.69214V1.68929C8.84583 1.68929 8.84583 1.47429 8.63194 1.47429H1.68056V1.48964Z" fill="#1E00B3"/>
<path d="M0 13.5602C0 13.5602 0 13.3452 0.213889 13.3452H2.75C2.75 13.3452 2.96389 13.3452 2.96389 13.5602V14.6199C2.96389 14.6199 2.96389 14.8349 2.75 14.8349H0.213889C0.213889 14.8349 0 14.8349 0 14.6199V13.5602Z" fill="#C71B00"/>
<path d="M0 16.5241C0 16.5241 0 16.3091 0.213889 16.3091H2.75C2.75 16.3091 2.96389 16.3091 2.96389 16.5241V19.0734C2.96389 19.0734 2.96389 19.2884 2.75 19.2884H0.213889C0.213889 19.2884 0 19.2884 0 19.0734V16.5241Z" fill="#C71B00"/>
<path d="M1.48194 20.9777C1.48194 20.9777 1.48194 20.7627 1.69583 20.7627H2.75C2.75 20.7627 2.96389 20.7627 2.96389 20.9777V22.0373C2.96389 22.0373 2.96389 22.2523 3.17778 22.2523H7.18056C7.18056 22.2523 7.39444 22.2523 7.39444 22.4673V23.527C7.39444 23.527 7.39444 23.742 7.18056 23.742H3.1625C3.1625 23.742 2.94861 23.742 2.94861 23.957V25.0166C2.94861 25.0166 2.94861 25.2316 3.1625 25.2316H4.21667C4.21667 25.2316 4.43056 25.2316 4.43056 25.4466V26.5063C4.43056 26.5063 4.43056 26.7213 4.21667 26.7213H3.1625C3.1625 26.7213 2.94861 26.7213 2.94861 26.9363V27.9959C2.94861 27.9959 2.94861 28.2109 2.73472 28.2109H0.213889C0.213889 28.2109 0 28.2109 0 27.9959V26.9363C0 26.9363 0 26.7213 0.213889 26.7213H1.26806C1.26806 26.7213 1.48194 26.7213 1.48194 26.5063V20.9777Z" fill="#C71B00"/>
<path d="M2.94861 28.38C2.94861 28.38 2.94861 28.165 3.1625 28.165H4.21667C4.21667 28.165 4.43056 28.165 4.43056 28.38V29.4397C4.43056 29.4397 4.43056 29.6547 4.64444 29.6547H5.69861C5.69861 29.6547 5.9125 29.6547 5.9125 29.8697V30.9293C5.9125 30.9293 5.9125 31.1443 5.69861 31.1443H0.213889C0.213889 31.1443 0 31.1443 0 30.9293V29.8697C0 29.8697 0 29.6547 0.213889 29.6547H2.75C2.75 29.6547 2.96389 29.6547 2.96389 29.4397V28.38H2.94861Z" fill="#C71B00"/>
<path d="M0 32.8337C0 32.8337 0 32.6187 0.213889 32.6187H10.1139C10.1139 32.6187 10.3278 32.6187 10.3278 32.8337V42.7851C10.3278 42.7851 10.3278 43.0001 10.1139 43.0001H0.213889C0.213889 43.0001 0 43.0001 0 42.7851V32.8337ZM1.68056 34.1083C1.68056 34.1083 1.46667 34.1083 1.46667 34.3233V41.3108C1.46667 41.3108 1.46667 41.5258 1.68056 41.5258H8.63194C8.63194 41.5258 8.84583 41.5258 8.84583 41.3108V34.3233C8.84583 34.3233 8.84583 34.1083 8.63194 34.1083H1.68056Z" fill="#1E00B3"/>
<path d="M2.94824 3.17887C2.94824 3.17887 2.94824 2.96387 3.16213 2.96387H7.16491C7.16491 2.96387 7.3788 2.96387 7.3788 3.17887V7.20244C7.3788 7.20244 7.3788 7.41744 7.16491 7.41744H3.16213C3.16213 7.41744 2.94824 7.41744 2.94824 7.20244V3.17887Z" fill="#1E00B3"/>
<path d="M2.94824 12.0705C2.94824 12.0705 2.94824 11.8555 3.16213 11.8555H4.2163C4.2163 11.8555 4.43019 11.8555 4.43019 12.0705V13.1301C4.43019 13.1301 4.43019 13.3451 4.2163 13.3451H3.16213C3.16213 13.3451 2.94824 13.3451 2.94824 13.1301V12.0705Z" fill="#C71B00"/>
<path d="M2.94824 19.4884C2.94824 19.4884 2.94824 19.2734 3.16213 19.2734H4.2163C4.2163 19.2734 4.43019 19.2734 4.43019 19.4884V20.5481C4.43019 20.5481 4.43019 20.7631 4.2163 20.7631H3.16213C3.16213 20.7631 2.94824 20.7631 2.94824 20.5481V19.4884Z" fill="#C71B00"/>
<path d="M2.94824 35.7975C2.94824 35.7975 2.94824 35.5825 3.16213 35.5825H7.16491C7.16491 35.5825 7.3788 35.5825 7.3788 35.7975V39.8211C7.3788 39.8211 7.3788 40.0361 7.16491 40.0361H3.16213C3.16213 40.0361 2.94824 40.0361 2.94824 39.8211V35.7975Z" fill="#1E00B3"/>
<path d="M4.43032 13.5602C4.43032 13.5602 4.43032 13.3452 4.64421 13.3452H7.18032C7.18032 13.3452 7.39421 13.3452 7.39421 13.5602V14.6199C7.39421 14.6199 7.39421 14.8349 7.18032 14.8349H6.11087C6.11087 14.8349 5.89698 14.8349 5.89698 15.0499V16.1095C5.89698 16.1095 5.89698 16.3245 5.68309 16.3245H4.62893C4.62893 16.3245 4.41504 16.3245 4.41504 16.1095V13.5602H4.43032Z" fill="#C71B00"/>
<path d="M8.84607 15.0348C8.84607 15.0348 8.84607 14.8198 9.05996 14.8198H13.0627C13.0627 14.8198 13.2766 14.8198 13.2766 15.0348V17.5841C13.2766 17.5841 13.2766 17.7991 13.4905 17.7991H14.5447C14.5447 17.7991 14.7586 17.7991 14.7586 17.5841V16.5245C14.7586 16.5245 14.7586 16.3095 14.9725 16.3095H16.0266C16.0266 16.3095 16.2405 16.3095 16.2405 16.5245V17.5841C16.2405 17.5841 16.2405 17.7991 16.4544 17.7991H18.9905C18.9905 17.7991 19.2044 17.7991 19.2044 18.0141V19.0738C19.2044 19.0738 19.2044 19.2888 19.4183 19.2888H20.4725C20.4725 19.2888 20.6864 19.2888 20.6864 19.5038V20.5634C20.6864 20.5634 20.6864 20.7784 20.9002 20.7784H21.9544C21.9544 20.7784 22.1683 20.7784 22.1683 20.5634V19.5038C22.1683 19.5038 22.1683 19.2888 22.3822 19.2888H23.4364C23.4364 19.2888 23.6502 19.2888 23.6502 19.5038V22.053C23.6502 22.053 23.6502 22.268 23.4364 22.268H22.3822C22.3822 22.268 22.1683 22.268 22.1683 22.483V23.5427C22.1683 23.5427 22.1683 23.7577 21.9544 23.7577H20.9002C20.9002 23.7577 20.6864 23.7577 20.6864 23.5427V22.483C20.6864 22.483 20.6864 22.268 20.4725 22.268H19.4183C19.4183 22.268 19.2044 22.268 19.2044 22.053V20.9934C19.2044 20.9934 19.2044 20.7784 18.9905 20.7784H17.9364C17.9364 20.7784 17.7225 20.7784 17.7225 20.5634V19.5038C17.7225 19.5038 17.7225 19.2888 17.5086 19.2888H14.9572C14.9572 19.2888 14.7433 19.2888 14.7433 19.5038V22.053C14.7433 22.053 14.7433 22.268 14.9572 22.268H16.0114C16.0114 22.268 16.2252 22.268 16.2252 22.483V23.5427C16.2252 23.5427 16.2252 23.7577 16.0114 23.7577H14.9572C14.9572 23.7577 14.7433 23.7577 14.7433 23.9727V25.0323C14.7433 25.0323 14.7433 25.2473 14.5294 25.2473H13.4905C13.4905 25.2473 13.2766 25.2473 13.2766 25.0323V22.483C13.2766 22.483 13.2766 22.268 13.0627 22.268H12.0086C12.0086 22.268 11.7947 22.268 11.7947 22.053V20.9934C11.7947 20.9934 11.7947 20.7784 12.0086 20.7784H13.0627C13.0627 20.7784 13.2766 20.7784 13.2766 20.5634V19.5038C13.2766 19.5038 13.2766 19.2888 13.0627 19.2888H12.0086C12.0086 19.2888 11.7947 19.2888 11.7947 19.5038V20.5634C11.7947 20.5634 11.7947 20.7784 11.5808 20.7784H10.5419C10.5419 20.7784 10.328 20.7784 10.328 20.5634V19.5038C10.328 19.5038 10.328 19.2888 10.1141 19.2888H6.11135C6.11135 19.2888 5.89746 19.2888 5.89746 19.0738V16.5245C5.89746 16.5245 5.89746 16.3095 6.11135 16.3095H8.64746C8.64746 16.3095 8.86135 16.3095 8.86135 16.0945V15.0348H8.84607ZM9.05996 16.3095C9.05996 16.3095 8.84607 16.3095 8.84607 16.5245V17.5841C8.84607 17.5841 8.84607 17.7991 9.05996 17.7991H10.1141C10.1141 17.7991 10.328 17.7991 10.328 17.5841V16.5245C10.328 16.5245 10.328 16.3095 10.1141 16.3095H9.05996Z" fill="#C71B00"/>
<path d="M10.328 22.4523C10.328 22.4523 10.328 22.2373 10.5419 22.2373H11.5961C11.5961 22.2373 11.81 22.2373 11.81 22.4523V25.0016C11.81 25.0016 11.81 25.2166 11.5961 25.2166H9.05996C9.05996 25.2166 8.84607 25.2166 8.84607 25.4316V26.4912C8.84607 26.4912 8.84607 26.7062 8.63218 26.7062H6.11135C6.11135 26.7062 5.89746 26.7062 5.89746 26.4912V25.4316C5.89746 25.4316 5.89746 25.2166 6.11135 25.2166H7.16552C7.16552 25.2166 7.37941 25.2166 7.37941 25.0016V23.9419C7.37941 23.9419 7.37941 23.7269 7.59329 23.7269H10.1294C10.1294 23.7269 10.3433 23.7269 10.3433 23.5119V22.4523H10.328Z" fill="#C71B00"/>
<path d="M14.7581 7.63248C14.7581 7.63248 14.7581 7.41748 14.972 7.41748H17.5081C17.5081 7.41748 17.722 7.41748 17.722 7.63248V8.69212C17.722 8.69212 17.722 8.90712 17.5081 8.90712H16.4539C16.4539 8.90712 16.24 8.90712 16.24 9.12212V10.1818C16.24 10.1818 16.24 10.3968 16.4539 10.3968H17.5081C17.5081 10.3968 17.722 10.3968 17.722 10.1818V9.10677C17.722 9.10677 17.722 8.89177 17.9359 8.89177H18.99C18.99 8.89177 19.2039 8.89177 19.2039 9.10677V11.6561C19.2039 11.6561 19.2039 11.8711 19.4178 11.8711H20.472C20.472 11.8711 20.6859 11.8711 20.6859 12.0861V13.1457C20.6859 13.1457 20.6859 13.3607 20.472 13.3607H17.9359C17.9359 13.3607 17.722 13.3607 17.722 13.1457V12.0707C17.722 12.0707 17.722 11.8557 17.5081 11.8557H14.9567C14.9567 11.8557 14.7428 11.8557 14.7428 12.0707V13.1303C14.7428 13.1303 14.7428 13.3453 14.9567 13.3453H17.4928C17.4928 13.3453 17.7067 13.3453 17.7067 13.5603V14.62C17.7067 14.62 17.7067 14.835 17.4928 14.835H13.49C13.49 14.835 13.2761 14.835 13.2761 14.62V13.5603C13.2761 13.5603 13.2761 13.3453 13.0622 13.3453H7.59279C7.59279 13.3453 7.37891 13.3453 7.37891 13.1303V12.0707C7.37891 12.0707 7.37891 11.8557 7.59279 11.8557H13.0775C13.0775 11.8557 13.2914 11.8557 13.2914 11.6407V10.5964C13.2914 10.5964 13.2914 10.3814 13.5053 10.3814H14.5595C14.5595 10.3814 14.7734 10.3814 14.7734 10.1664V7.63248H14.7581Z" fill="#C71B00"/>
<path d="M7.37891 28.38C7.37891 28.38 7.37891 28.165 7.5928 28.165H8.64696C8.64696 28.165 8.86085 28.165 8.86085 28.38V29.4397C8.86085 29.4397 8.86085 29.6547 9.07474 29.6547H10.1289C10.1289 29.6547 10.3428 29.6547 10.3428 29.8697V30.9293C10.3428 30.9293 10.3428 31.1443 10.1289 31.1443H7.5928C7.5928 31.1443 7.37891 31.1443 7.37891 30.9293V28.38Z" fill="#C71B00"/>
<path d="M8.8457 20.9777C8.8457 20.9777 8.8457 20.7627 9.05959 20.7627H10.1138C10.1138 20.7627 10.3276 20.7627 10.3276 20.9777V22.0373C10.3276 22.0373 10.3276 22.2523 10.1138 22.2523H9.05959C9.05959 22.2523 8.8457 22.2523 8.8457 22.0373V20.9777Z" fill="#C71B00"/>
<path d="M8.8457 26.9059C8.8457 26.9059 8.8457 26.6909 9.05959 26.6909H10.1138C10.1138 26.6909 10.3276 26.6909 10.3276 26.9059V27.9656C10.3276 27.9656 10.3276 28.1806 10.1138 28.1806H9.05959C9.05959 28.1806 8.8457 28.1806 8.8457 27.9656V26.9059Z" fill="#C71B00"/>
<path d="M11.7939 1.68912C11.7939 1.68912 11.7939 1.47412 12.0078 1.47412H14.5439C14.5439 1.47412 14.7578 1.47412 14.7578 1.68912V2.74876C14.7578 2.74876 14.7578 2.96376 14.5439 2.96376H13.4898C13.4898 2.96376 13.2759 2.96376 13.2759 3.17876V4.23841C13.2759 4.23841 13.2759 4.45341 13.4898 4.45341H14.5439C14.5439 4.45341 14.7578 4.45341 14.7578 4.66841V7.21769C14.7578 7.21769 14.7578 7.43269 14.5439 7.43269H13.4898C13.4898 7.43269 13.2759 7.43269 13.2759 7.64769V10.197C13.2759 10.197 13.2759 10.412 13.062 10.412H12.0078C12.0078 10.412 11.7939 10.412 11.7939 10.197V1.68912Z" fill="#C71B00"/>
<path d="M11.7939 25.4162C11.7939 25.4162 11.7939 25.2012 12.0078 25.2012H13.062C13.062 25.2012 13.2759 25.2012 13.2759 25.4162V26.4758C13.2759 26.4758 13.2759 26.6908 13.062 26.6908H12.0078C12.0078 26.6908 11.7939 26.6908 11.7939 26.4758V25.4162Z" fill="#C71B00"/>
<path d="M13.2759 26.9059C13.2759 26.9059 13.2759 26.6909 13.4898 26.6909H14.5439C14.5439 26.6909 14.7578 26.6909 14.7578 26.9059V29.4552C14.7578 29.4552 14.7578 29.6702 14.5439 29.6702H13.4898C13.4898 29.6702 13.2759 29.6702 13.2759 29.8852V30.9448C13.2759 30.9448 13.2759 31.1598 13.4898 31.1598H14.5439C14.5439 31.1598 14.7578 31.1598 14.7578 31.3748V32.4345C14.7578 32.4345 14.7578 32.6495 14.5439 32.6495H13.4898C13.4898 32.6495 13.2759 32.6495 13.2759 32.8645V35.4138C13.2759 35.4138 13.2759 35.6288 13.062 35.6288H12.0078C12.0078 35.6288 11.7939 35.6288 11.7939 35.4138V28.4263C11.7939 28.4263 11.7939 28.2113 12.0078 28.2113H13.062C13.062 28.2113 13.2759 28.2113 13.2759 27.9963V26.9059Z" fill="#C71B00"/>
<path d="M11.7939 38.7614C11.7939 38.7614 11.7939 38.5464 12.0078 38.5464H14.5439C14.5439 38.5464 14.7578 38.5464 14.7578 38.7614V39.821C14.7578 39.821 14.7578 40.036 14.5439 40.036H12.0078C12.0078 40.036 11.7939 40.036 11.7939 39.821V38.7614Z" fill="#C71B00"/>
<path d="M14.7584 0.215C14.7584 0.215 14.7584 0 14.9723 0H20.4571C20.4571 0 20.6709 0 20.6709 0.215V1.27464C20.6709 1.27464 20.6709 1.48964 20.4571 1.48964H19.4029C19.4029 1.48964 19.189 1.48964 19.189 1.70464V2.76429C19.189 2.76429 19.189 2.97929 18.9751 2.97929H17.9209C17.9209 2.97929 17.7071 2.97929 17.7071 2.76429V1.68929C17.7071 1.68929 17.7071 1.47429 17.4932 1.47429H14.9571C14.9571 1.47429 14.7432 1.47429 14.7432 1.25929V0.215H14.7584Z" fill="#C71B00"/>
<path d="M14.7584 3.17887C14.7584 3.17887 14.7584 2.96387 14.9723 2.96387H16.0265C16.0265 2.96387 16.2404 2.96387 16.2404 3.17887V4.23851C16.2404 4.23851 16.2404 4.45351 16.0265 4.45351H14.9571C14.9571 4.45351 14.7432 4.45351 14.7432 4.23851V3.17887H14.7584Z" fill="#C71B00"/>
<path d="M16.2251 23.9416C16.2251 23.9416 16.2251 23.7266 16.439 23.7266H17.4932C17.4932 23.7266 17.7071 23.7266 17.7071 23.9416V26.4908C17.7071 26.4908 17.7071 26.7058 17.9209 26.7058H18.9751C18.9751 26.7058 19.189 26.7058 19.189 26.9208V29.4701C19.189 29.4701 19.189 29.6851 19.4029 29.6851H21.939C21.939 29.6851 22.1529 29.6851 22.1529 29.9001V30.9598C22.1529 30.9598 22.1529 31.1748 21.939 31.1748H20.8848C20.8848 31.1748 20.6709 31.1748 20.6709 31.3898V32.4494C20.6709 32.4494 20.6709 32.6644 20.4571 32.6644H19.4029C19.4029 32.6644 19.189 32.6644 19.189 32.8794V33.9391C19.189 33.9391 19.189 34.1541 18.9751 34.1541H17.9209C17.9209 34.1541 17.7071 34.1541 17.7071 33.9391V32.8794C17.7071 32.8794 17.7071 32.6644 17.4932 32.6644H16.439C16.439 32.6644 16.2251 32.6644 16.2251 32.4494V31.3898C16.2251 31.3898 16.2251 31.1748 16.0112 31.1748H14.9571C14.9571 31.1748 14.7432 31.1748 14.7432 30.9598V29.9001C14.7432 29.9001 14.7432 29.6851 14.9571 29.6851H17.4932C17.4932 29.6851 17.7071 29.6851 17.7071 29.4701V28.4105C17.7071 28.4105 17.7071 28.1955 17.4932 28.1955H16.439C16.439 28.1955 16.2251 28.1955 16.2251 27.9805V26.9208C16.2251 26.9208 16.2251 26.7058 16.0112 26.7058H14.9571C14.9571 26.7058 14.7432 26.7058 14.7432 26.4908V25.4312C14.7432 25.4312 14.7432 25.2162 14.9571 25.2162H16.0112C16.0112 25.2162 16.2251 25.2162 16.2251 25.0012V23.9416Z" fill="#C71B00"/>
<path d="M14.7584 32.8337C14.7584 32.8337 14.7584 32.6187 14.9723 32.6187H16.0265C16.0265 32.6187 16.2404 32.6187 16.2404 32.8337V33.8933C16.2404 33.8933 16.2404 34.1083 16.4543 34.1083H17.5084C17.5084 34.1083 17.7223 34.1083 17.7223 34.3233V36.8572C17.7223 36.8572 17.7223 37.0722 17.5084 37.0722H14.9571C14.9571 37.0722 14.7432 37.0722 14.7432 36.8572V32.8337H14.7584Z" fill="#C71B00"/>
<path d="M14.7584 40.2511C14.7584 40.2511 14.7584 40.0361 14.9723 40.0361H17.5084C17.5084 40.0361 17.7223 40.0361 17.7223 40.2511V41.3108C17.7223 41.3108 17.7223 41.5258 17.5084 41.5258H14.9571C14.9571 41.5258 14.7432 41.5258 14.7432 41.3108V40.2511H14.7584Z" fill="#C71B00"/>
<path d="M16.2246 4.65299C16.2246 4.65299 16.2246 4.43799 16.4385 4.43799H18.9746C18.9746 4.43799 19.1885 4.43799 19.1885 4.65299V7.20227C19.1885 7.20227 19.1885 7.41727 18.9746 7.41727H17.9204C17.9204 7.41727 17.7066 7.41727 17.7066 7.20227V6.14263C17.7066 6.14263 17.7066 5.92763 17.4927 5.92763H16.4385C16.4385 5.92763 16.2246 5.92763 16.2246 5.71263V4.65299Z" fill="#C71B00"/>
<path d="M17.707 15.0348C17.707 15.0348 17.707 14.8198 17.9209 14.8198H20.457C20.457 14.8198 20.6709 14.8198 20.6709 15.0348V16.0945C20.6709 16.0945 20.6709 16.3095 20.457 16.3095H17.9209C17.9209 16.3095 17.707 16.3095 17.707 16.0945V15.0348Z" fill="#C71B00"/>
<path d="M17.707 37.2873C17.707 37.2873 17.707 37.0723 17.9209 37.0723H18.9751C18.9751 37.0723 19.189 37.0723 19.189 37.2873V39.8365C19.189 39.8365 19.189 40.0515 18.9751 40.0515H17.9209C17.9209 40.0515 17.707 40.0515 17.707 39.8365V37.2873Z" fill="#C71B00"/>
<path d="M36.8802 26.9059C36.8802 26.9059 36.8802 26.6909 37.0941 26.6909H39.6302C39.6302 26.6909 39.8441 26.6909 39.8441 26.9059V27.9656C39.8441 27.9656 39.8441 28.1806 39.6302 28.1806H38.5761C38.5761 28.1806 38.3622 28.1806 38.3622 28.3956V29.4552C38.3622 29.4552 38.3622 29.6702 38.1483 29.6702H37.0941C37.0941 29.6702 36.8802 29.6702 36.8802 29.8852V30.9448C36.8802 30.9448 36.8802 31.1598 37.0941 31.1598H38.1483C38.1483 31.1598 38.3622 31.1598 38.3622 31.3748V32.4345C38.3622 32.4345 38.3622 32.6495 38.5761 32.6495H41.1122C41.1122 32.6495 41.3261 32.6495 41.3261 32.4345V31.3748C41.3261 31.3748 41.3261 31.1598 41.1122 31.1598H40.058C40.058 31.1598 39.8441 31.1598 39.8441 30.9448V28.3956C39.8441 28.3956 39.8441 28.1806 40.058 28.1806H41.1122C41.1122 28.1806 41.3261 28.1806 41.3261 28.3956V29.4552C41.3261 29.4552 41.3261 29.6702 41.54 29.6702H42.5941C42.5941 29.6702 42.808 29.6702 42.808 29.8852V36.8573C42.808 36.8573 42.808 37.0723 42.5941 37.0723H41.54C41.54 37.0723 41.3261 37.0723 41.3261 36.8573V34.3081C41.3261 34.3081 41.3261 34.0931 41.1122 34.0931H38.5761C38.5761 34.0931 38.3622 34.0931 38.3622 34.3081V35.3677C38.3622 35.3677 38.3622 35.5827 38.1483 35.5827H37.0941C37.0941 35.5827 36.8802 35.5827 36.8802 35.7977V38.347C36.8802 38.347 36.8802 38.562 37.0941 38.562H39.6302C39.6302 38.562 39.8441 38.562 39.8441 38.347V37.2873C39.8441 37.2873 39.8441 37.0723 40.058 37.0723H41.1122C41.1122 37.0723 41.3261 37.0723 41.3261 37.2873V38.347C41.3261 38.347 41.3261 38.562 41.54 38.562H42.5941C42.5941 38.562 42.808 38.562 42.808 38.777V39.8366C42.808 39.8366 42.808 40.0516 42.5941 40.0516H35.6427C35.6427 40.0516 35.4288 40.0516 35.4288 39.8366V38.777C35.4288 38.777 35.4288 38.562 35.215 38.562H34.1608C34.1608 38.562 33.9469 38.562 33.9469 38.347V37.2873C33.9469 37.2873 33.9469 37.0723 33.733 37.0723H31.1969C31.1969 37.0723 30.983 37.0723 30.983 37.2873V38.347C30.983 38.347 30.983 38.562 30.7691 38.562H28.233C28.233 38.562 28.0191 38.562 28.0191 38.777V39.8366C28.0191 39.8366 28.0191 40.0516 27.8052 40.0516H26.7511C26.7511 40.0516 26.5372 40.0516 26.5372 39.8366V38.777C26.5372 38.777 26.5372 38.562 26.3233 38.562H25.2691C25.2691 38.562 25.0552 38.562 25.0552 38.347V37.2873C25.0552 37.2873 25.0552 37.0723 24.8413 37.0723H23.7872C23.7872 37.0723 23.5733 37.0723 23.5733 37.2873V38.347C23.5733 38.347 23.5733 38.562 23.7872 38.562H24.8413C24.8413 38.562 25.0552 38.562 25.0552 38.777V39.8366C25.0552 39.8366 25.0552 40.0516 24.8413 40.0516H23.7872C23.7872 40.0516 23.5733 40.0516 23.5733 40.2666V41.3263C23.5733 41.3263 23.5733 41.5413 23.3594 41.5413H20.8233C20.8233 41.5413 20.6094 41.5413 20.6094 41.7563V42.8159C20.6094 42.8159 20.6094 43.0309 20.3955 43.0309H17.8594C17.8594 43.0309 17.6455 43.0309 17.6455 42.8159V41.7563C17.6455 41.7563 17.6455 41.5413 17.8594 41.5413H18.9136C18.9136 41.5413 19.1275 41.5413 19.1275 41.3263V40.2666C19.1275 40.2666 19.1275 40.0516 19.3413 40.0516H21.8775C21.8775 40.0516 22.0913 40.0516 22.0913 39.8366V35.8131C22.0913 35.8131 22.0913 35.5981 22.3052 35.5981H23.3594C23.3594 35.5981 23.5733 35.5981 23.5733 35.3831V32.8338C23.5733 32.8338 23.5733 32.6188 23.7872 32.6188H24.8413C24.8413 32.6188 25.0552 32.6188 25.0552 32.8338V35.3831C25.0552 35.3831 25.0552 35.5981 25.2691 35.5981H26.3233C26.3233 35.5981 26.5372 35.5981 26.5372 35.8131V36.8573C26.5372 36.8573 26.5372 37.0723 26.7511 37.0723H27.8052C27.8052 37.0723 28.0191 37.0723 28.0191 36.8573V35.7977C28.0191 35.7977 28.0191 35.5827 27.8052 35.5827H26.7511C26.7511 35.5827 26.5372 35.5827 26.5372 35.3677V32.8184C26.5372 32.8184 26.5372 32.6034 26.7511 32.6034H27.8052C27.8052 32.6034 28.0191 32.6034 28.0191 32.8184V33.8781C28.0191 33.8781 28.0191 34.0931 28.233 34.0931H29.2872C29.2872 34.0931 29.5011 34.0931 29.5011 33.8781V32.8184C29.5011 32.8184 29.5011 32.6034 29.2872 32.6034H28.233C28.233 32.6034 28.0191 32.6034 28.0191 32.3884V29.8391C28.0191 29.8391 28.0191 29.6241 28.233 29.6241H30.7691C30.7691 29.6241 30.983 29.6241 30.983 29.4091V28.3495C30.983 28.3495 30.983 28.1345 31.1969 28.1345H36.6663C36.6663 28.1345 36.8802 28.1345 36.8802 27.9195V26.9059ZM31.1816 31.1445C31.1816 31.1445 30.9677 31.1445 30.9677 31.3595V35.3831C30.9677 35.3831 30.9677 35.5981 31.1816 35.5981H35.1844C35.1844 35.5981 35.3983 35.5981 35.3983 35.3831V31.3595C35.3983 31.3595 35.3983 31.1445 35.1844 31.1445H31.1816Z" fill="#C71B00"/>
<path d="M22.1221 0.215C22.1221 0.215 22.1221 0 22.336 0H23.3901C23.3901 0 23.604 0 23.604 0.215V1.27464C23.604 1.27464 23.604 1.48964 23.8179 1.48964H24.8721C24.8721 1.48964 25.086 1.48964 25.086 1.70464V2.76429C25.086 2.76429 25.086 2.97929 25.2999 2.97929H26.354C26.354 2.97929 26.5679 2.97929 26.5679 3.19429V4.25393C26.5679 4.25393 26.5679 4.46893 26.7818 4.46893H27.836C27.836 4.46893 28.0499 4.46893 28.0499 4.68393V10.1971C28.0499 10.1971 28.0499 10.4121 27.836 10.4121H26.7818C26.7818 10.4121 26.5679 10.4121 26.5679 10.1971V9.10679C26.5679 9.10679 26.5679 8.89179 26.354 8.89179H25.2999C25.2999 8.89179 25.086 8.89179 25.086 8.67679V7.6325C25.086 7.6325 25.086 7.4175 25.2999 7.4175H26.354C26.354 7.4175 26.5679 7.4175 26.5679 7.2025V6.14286C26.5679 6.14286 26.5679 5.92786 26.354 5.92786H25.2999C25.2999 5.92786 25.086 5.92786 25.086 5.71286V4.65321C25.086 4.65321 25.086 4.43821 24.8721 4.43821H22.336C22.336 4.43821 22.1221 4.43821 22.1221 4.65321V5.71286C22.1221 5.71286 22.1221 5.92786 21.9082 5.92786H20.854C20.854 5.92786 20.6401 5.92786 20.6401 5.71286V4.65321C20.6401 4.65321 20.6401 4.43821 20.4263 4.43821H19.3721C19.3721 4.43821 19.1582 4.43821 19.1582 4.22321V3.17893C19.1582 3.17893 19.1582 2.96393 19.3721 2.96393H20.4263C20.4263 2.96393 20.6401 2.96393 20.6401 2.74893V1.68929C20.6401 1.68929 20.6401 1.47429 20.854 1.47429H21.9082C21.9082 1.47429 22.1221 1.47429 22.1221 1.25929V0.215Z" fill="#C71B00"/>
<path d="M19.1738 23.9416C19.1738 23.9416 19.1738 23.7266 19.3877 23.7266H20.4419C20.4419 23.7266 20.6558 23.7266 20.6558 23.9416V25.0012C20.6558 25.0012 20.6558 25.2162 20.8697 25.2162H21.9238C21.9238 25.2162 22.1377 25.2162 22.1377 25.4312V27.9805C22.1377 27.9805 22.1377 28.1955 21.9238 28.1955H20.8697C20.8697 28.1955 20.6558 28.1955 20.6558 27.9805V26.9208C20.6558 26.9208 20.6558 26.7058 20.4419 26.7058H19.3877C19.3877 26.7058 19.1738 26.7058 19.1738 26.4908V23.9416Z" fill="#C71B00"/>
<path d="M19.1738 34.3078C19.1738 34.3078 19.1738 34.0928 19.3877 34.0928H21.9238C21.9238 34.0928 22.1377 34.0928 22.1377 34.3078V35.3674C22.1377 35.3674 22.1377 35.5824 21.9238 35.5824H20.8697C20.8697 35.5824 20.6558 35.5824 20.6558 35.7974V36.8571C20.6558 36.8571 20.6558 37.0721 20.4419 37.0721H19.3877C19.3877 37.0721 19.1738 37.0721 19.1738 36.8571V34.3078Z" fill="#C71B00"/>
<path d="M20.6556 9.1066C20.6556 9.1066 20.6556 8.8916 20.8694 8.8916H21.9236C21.9236 8.8916 22.1375 8.8916 22.1375 9.1066V10.1662C22.1375 10.1662 22.1375 10.3812 22.3514 10.3812H23.4056C23.4056 10.3812 23.6194 10.3812 23.6194 10.1662V9.1066C23.6194 9.1066 23.6194 8.8916 23.8333 8.8916H24.8875C24.8875 8.8916 25.1014 8.8916 25.1014 9.1066V10.1662C25.1014 10.1662 25.1014 10.3812 25.3153 10.3812H26.3694C26.3694 10.3812 26.5833 10.3812 26.5833 10.5962V14.6198C26.5833 14.6198 26.5833 14.8348 26.7972 14.8348H27.8514C27.8514 14.8348 28.0653 14.8348 28.0653 15.0498V16.1095C28.0653 16.1095 28.0653 16.3245 28.2792 16.3245H29.3333C29.3333 16.3245 29.5472 16.3245 29.5472 16.1095V12.0705C29.5472 12.0705 29.5472 11.8555 29.7611 11.8555H32.2972C32.2972 11.8555 32.5111 11.8555 32.5111 12.0705V13.1302C32.5111 13.1302 32.5111 13.3452 32.2972 13.3452H31.2431C31.2431 13.3452 31.0292 13.3452 31.0292 13.5602V14.6198C31.0292 14.6198 31.0292 14.8348 31.2431 14.8348H32.2972C32.2972 14.8348 32.5111 14.8348 32.5111 15.0498V16.1095C32.5111 16.1095 32.5111 16.3245 32.2972 16.3245H31.2431C31.2431 16.3245 31.0292 16.3245 31.0292 16.5395V17.5991C31.0292 17.5991 31.0292 17.8141 31.2431 17.8141H32.2972C32.2972 17.8141 32.5111 17.8141 32.5111 17.5991V16.5395C32.5111 16.5395 32.5111 16.3245 32.725 16.3245H33.7792C33.7792 16.3245 33.9931 16.3245 33.9931 16.1095V12.0705C33.9931 12.0705 33.9931 11.8555 34.2069 11.8555H41.1583C41.1583 11.8555 41.3722 11.8555 41.3722 12.0705V13.1302C41.3722 13.1302 41.3722 13.3452 41.5861 13.3452H42.6403C42.6403 13.3452 42.8542 13.3452 42.8542 13.5602V16.1095C42.8542 16.1095 42.8542 16.3245 42.6403 16.3245H41.5861C41.5861 16.3245 41.3722 16.3245 41.3722 16.1095V15.0345C41.3722 15.0345 41.3722 14.8195 41.1583 14.8195H40.1042C40.1042 14.8195 39.8903 14.8195 39.8903 14.6045V13.5602C39.8903 13.5602 39.8903 13.3452 39.6764 13.3452H37.1403C37.1403 13.3452 36.9264 13.3452 36.9264 13.5602V14.6198C36.9264 14.6198 36.9264 14.8348 36.7125 14.8348H35.6583C35.6583 14.8348 35.4444 14.8348 35.4444 15.0498V16.1095C35.4444 16.1095 35.4444 16.3245 35.6583 16.3245H38.1944C38.1944 16.3245 38.4083 16.3245 38.4083 16.5395V17.5991C38.4083 17.5991 38.4083 17.8141 38.1944 17.8141H34.1917C34.1917 17.8141 33.9778 17.8141 33.9778 18.0291V22.0527C33.9778 22.0527 33.9778 22.2677 33.7639 22.2677H32.7097C32.7097 22.2677 32.4958 22.2677 32.4958 22.4827V23.5423C32.4958 23.5423 32.4958 23.7573 32.7097 23.7573H36.6667C36.6667 23.7573 36.8806 23.7573 36.8806 23.9723V25.032C36.8806 25.032 36.8806 25.247 36.6667 25.247H32.6639C32.6639 25.247 32.45 25.247 32.45 25.462V26.5216C32.45 26.5216 32.45 26.7366 32.2361 26.7366H31.1819C31.1819 26.7366 30.9681 26.7366 30.9681 26.5216V21.0084C30.9681 21.0084 30.9681 20.7934 31.1819 20.7934H32.2361C32.2361 20.7934 32.45 20.7934 32.45 20.5784V19.5187C32.45 19.5187 32.45 19.3037 32.2361 19.3037H31.1819C31.1819 19.3037 30.9681 19.3037 30.9681 19.5187V20.5784C30.9681 20.5784 30.9681 20.7934 30.7542 20.7934H29.7C29.7 20.7934 29.4861 20.7934 29.4861 21.0084V25.032C29.4861 25.032 29.4861 25.247 29.2722 25.247H28.2181C28.2181 25.247 28.0042 25.247 28.0042 25.462V26.5216C28.0042 26.5216 28.0042 26.7366 28.2181 26.7366H29.2722C29.2722 26.7366 29.4861 26.7366 29.4861 26.9516V28.0112C29.4861 28.0112 29.4861 28.2262 29.2722 28.2262H28.2181C28.2181 28.2262 28.0042 28.2262 28.0042 28.4412V29.5009C28.0042 29.5009 28.0042 29.7159 27.7903 29.7159H23.7875C23.7875 29.7159 23.5736 29.7159 23.5736 29.5009V23.9877C23.5736 23.9877 23.5736 23.7727 23.7875 23.7727H26.3236C26.3236 23.7727 26.5375 23.7727 26.5375 23.5577V22.498C26.5375 22.498 26.5375 22.283 26.7514 22.283H27.8056C27.8056 22.283 28.0194 22.283 28.0194 22.068V21.0084C28.0194 21.0084 28.0194 20.7934 27.8056 20.7934H26.7514C26.7514 20.7934 26.5375 20.7934 26.5375 21.0084V22.068C26.5375 22.068 26.5375 22.283 26.3236 22.283H25.2694C25.2694 22.283 25.0556 22.283 25.0556 22.068V19.5187C25.0556 19.5187 25.0556 19.3037 25.2694 19.3037H26.3236C26.3236 19.3037 26.5375 19.3037 26.5375 19.0887V18.0291C26.5375 18.0291 26.5375 17.8141 26.3236 17.8141H22.3208C22.3208 17.8141 22.1069 17.8141 22.1069 17.5991V16.5395C22.1069 16.5395 22.1069 16.3245 22.3208 16.3245H23.375C23.375 16.3245 23.5889 16.3245 23.5889 16.1095V15.0345C23.5889 15.0345 23.5889 14.8195 23.8028 14.8195H24.8569C24.8569 14.8195 25.0708 14.8195 25.0708 14.6045V13.5602C25.0708 13.5602 25.0708 13.3452 24.8569 13.3452H23.8028C23.8028 13.3452 23.5889 13.3452 23.5889 13.1302V12.0705C23.5889 12.0705 23.5889 11.8555 23.375 11.8555H20.8389C20.8389 11.8555 20.625 11.8555 20.625 11.6405V9.1066H20.6556ZM28.2333 17.7987C28.2333 17.7987 28.0194 17.7987 28.0194 18.0137V19.0734C28.0194 19.0734 28.0194 19.2884 28.2333 19.2884H29.2875C29.2875 19.2884 29.5014 19.2884 29.5014 19.0734V18.0137C29.5014 18.0137 29.5014 17.7987 29.2875 17.7987H28.2333ZM25.2847 25.2009C25.2847 25.2009 25.0708 25.2009 25.0708 25.4159V27.9652C25.0708 27.9652 25.0708 28.1802 25.2847 28.1802H26.3389C26.3389 28.1802 26.5528 28.1802 26.5528 27.9652V25.4159C26.5528 25.4159 26.5528 25.2009 26.3389 25.2009H25.2847Z" fill="#C71B00"/>
<path d="M22.1221 6.14273C22.1221 6.14273 22.1221 5.92773 22.336 5.92773H24.8721C24.8721 5.92773 25.086 5.92773 25.086 6.14273V7.20238C25.086 7.20238 25.086 7.41738 24.8721 7.41738H22.336C22.336 7.41738 22.1221 7.41738 22.1221 7.20238V6.14273Z" fill="#C71B00"/>
<path d="M22.1221 31.3439C22.1221 31.3439 22.1221 31.1289 22.336 31.1289H23.3901C23.3901 31.1289 23.604 31.1289 23.604 31.3439V32.4035C23.604 32.4035 23.604 32.6185 23.3901 32.6185H22.336C22.336 32.6185 22.1221 32.6185 22.1221 32.4035V31.3439Z" fill="#C71B00"/>
<path d="M23.6045 41.7253C23.6045 41.7253 23.6045 41.5103 23.8184 41.5103H24.8726C24.8726 41.5103 25.0864 41.5103 25.0864 41.7253V42.7849C25.0864 42.7849 25.0864 42.9999 24.8726 42.9999H23.8184C23.8184 42.9999 23.6045 42.9999 23.6045 42.7849V41.7253Z" fill="#C71B00"/>
<path d="M25.0713 31.3439C25.0713 31.3439 25.0713 31.1289 25.2852 31.1289H26.3393C26.3393 31.1289 26.5532 31.1289 26.5532 31.3439V32.4035C26.5532 32.4035 26.5532 32.6185 26.3393 32.6185H25.2852C25.2852 32.6185 25.0713 32.6185 25.0713 32.4035V31.3439Z" fill="#C71B00"/>
<path d="M25.0713 40.2511C25.0713 40.2511 25.0713 40.0361 25.2852 40.0361H26.3393C26.3393 40.0361 26.5532 40.0361 26.5532 40.2511V41.3108C26.5532 41.3108 26.5532 41.5258 26.3393 41.5258H25.2852C25.2852 41.5258 25.0713 41.5258 25.0713 41.3108V40.2511Z" fill="#C71B00"/>
<path d="M26.5527 41.7253C26.5527 41.7253 26.5527 41.5103 26.7666 41.5103H27.8208C27.8208 41.5103 28.0347 41.5103 28.0347 41.7253V42.7849C28.0347 42.7849 28.0347 42.9999 27.8208 42.9999H26.7666C26.7666 42.9999 26.5527 42.9999 26.5527 42.7849V41.7253Z" fill="#C71B00"/>
<path d="M28.0195 0.215C28.0195 0.215 28.0195 0 28.2334 0H30.7695C30.7695 0 30.9834 0 30.9834 0.215V4.23857C30.9834 4.23857 30.9834 4.45357 30.7695 4.45357H28.2334C28.2334 4.45357 28.0195 4.45357 28.0195 4.23857V3.17893C28.0195 3.17893 28.0195 2.96393 28.2334 2.96393H29.2876C29.2876 2.96393 29.5015 2.96393 29.5015 2.74893V1.68929C29.5015 1.68929 29.5015 1.47429 29.2876 1.47429H28.2334C28.2334 1.47429 28.0195 1.47429 28.0195 1.25929V0.215Z" fill="#C71B00"/>
<path d="M28.0195 10.5963C28.0195 10.5963 28.0195 10.3813 28.2334 10.3813H29.2876C29.2876 10.3813 29.5015 10.3813 29.5015 10.5963V11.656C29.5015 11.656 29.5015 11.871 29.2876 11.871H28.2334C28.2334 11.871 28.0195 11.871 28.0195 11.656V10.5963Z" fill="#C71B00"/>
<path d="M29.501 7.63248C29.501 7.63248 29.501 7.41748 29.7149 7.41748H30.769C30.769 7.41748 30.9829 7.41748 30.9829 7.63248V10.1818C30.9829 10.1818 30.9829 10.3968 30.769 10.3968H29.7149C29.7149 10.3968 29.501 10.3968 29.501 10.1818V7.63248Z" fill="#C71B00"/>
<path d="M30.9834 38.7614C30.9834 38.7614 30.9834 38.5464 31.1973 38.5464H32.2515C32.2515 38.5464 32.4653 38.5464 32.4653 38.7614V39.821C32.4653 39.821 32.4653 40.036 32.6792 40.036H33.7334C33.7334 40.036 33.9473 40.036 33.9473 40.251V41.3107C33.9473 41.3107 33.9473 41.5257 33.7334 41.5257H32.6792C32.6792 41.5257 32.4653 41.5257 32.4653 41.7407V42.8003C32.4653 42.8003 32.4653 43.0153 32.2515 43.0153H31.1973C31.1973 43.0153 30.9834 43.0153 30.9834 42.8003V38.7614Z" fill="#C71B00"/>
<path d="M32.4502 0.215C32.4502 0.215 32.4502 0 32.6641 0H42.5641C42.5641 0 42.778 0 42.778 0.215V10.1664C42.778 10.1664 42.778 10.3814 42.5641 10.3814H32.6641C32.6641 10.3814 32.4502 10.3814 32.4502 10.1664V0.215ZM34.1308 1.48964C34.1308 1.48964 33.9169 1.48964 33.9169 1.70464V8.69214C33.9169 8.69214 33.9169 8.90714 34.1308 8.90714H41.0821C41.0821 8.90714 41.296 8.90714 41.296 8.69214V1.68929C41.296 1.68929 41.296 1.47429 41.0821 1.47429H34.1308V1.48964Z" fill="#1E00B3"/>
<path d="M32.4502 32.8337C32.4502 32.8337 32.4502 32.6187 32.6641 32.6187H33.7182C33.7182 32.6187 33.9321 32.6187 33.9321 32.8337V33.8933C33.9321 33.8933 33.9321 34.1083 33.7182 34.1083H32.6641C32.6641 34.1083 32.4502 34.1083 32.4502 33.8933V32.8337Z" fill="#C71B00"/>
<path d="M33.9316 41.7253C33.9316 41.7253 33.9316 41.5103 34.1455 41.5103H38.1483C38.1483 41.5103 38.3622 41.5103 38.3622 41.7253V42.7849C38.3622 42.7849 38.3622 42.9999 38.1483 42.9999H34.1455C34.1455 42.9999 33.9316 42.9999 33.9316 42.7849V41.7253Z" fill="#C71B00"/>
<path d="M35.3984 3.17887C35.3984 3.17887 35.3984 2.96387 35.6123 2.96387H39.6151C39.6151 2.96387 39.829 2.96387 39.829 3.17887V7.20244C39.829 7.20244 39.829 7.41744 39.6151 7.41744H35.6123C35.6123 7.41744 35.3984 7.41744 35.3984 7.20244V3.17887Z" fill="#1E00B3"/>
<path d="M36.8809 19.4884C36.8809 19.4884 36.8809 19.2734 37.0948 19.2734H38.1489C38.1489 19.2734 38.3628 19.2734 38.3628 19.4884V20.5481C38.3628 20.5481 38.3628 20.7631 38.5767 20.7631H39.6309C39.6309 20.7631 39.8447 20.7631 39.8447 20.9781V22.0377C39.8447 22.0377 39.8448 22.2527 39.6309 22.2527H38.5767C38.5767 22.2527 38.3628 22.2527 38.3628 22.4677V23.5274C38.3628 23.5274 38.3628 23.7424 38.1489 23.7424H37.0948C37.0948 23.7424 36.8809 23.7424 36.8809 23.5274V19.4884Z" fill="#C71B00"/>
<path d="M38.3477 15.0348C38.3477 15.0348 38.3477 14.8198 38.5615 14.8198H39.6157C39.6157 14.8198 39.8296 14.8198 39.8296 15.0348V16.0945C39.8296 16.0945 39.8296 16.3095 39.6157 16.3095H38.5615C38.5615 16.3095 38.3477 16.3095 38.3477 16.0945V15.0348Z" fill="#C71B00"/>
<path d="M39.8291 17.9987C39.8291 17.9987 39.8291 17.7837 40.043 17.7837H41.0972C41.0972 17.7837 41.3111 17.7837 41.3111 17.9987V19.0583C41.3111 19.0583 41.311 19.2733 41.0972 19.2733H40.043C40.043 19.2733 39.8291 19.2733 39.8291 19.0583V17.9987Z" fill="#C71B00"/>
<path d="M41.2959 19.4884C41.2959 19.4884 41.2959 19.2734 41.5098 19.2734H42.5639C42.5639 19.2734 42.7778 19.2734 42.7778 19.4884V23.512C42.7778 23.512 42.7778 23.727 42.5639 23.727H41.5098C41.5098 23.727 41.2959 23.727 41.2959 23.512V19.4884Z" fill="#C71B00"/>
<path d="M41.2959 25.4162C41.2959 25.4162 41.2959 25.2012 41.5098 25.2012H42.5639C42.5639 25.2012 42.7778 25.2012 42.7778 25.4162V27.9655C42.7778 27.9655 42.7778 28.1805 42.5639 28.1805H41.5098C41.5098 28.1805 41.2959 28.1805 41.2959 27.9655V25.4162Z" fill="#C71B00"/>
<path d="M41.2959 41.7253C41.2959 41.7253 41.2959 41.5103 41.5098 41.5103H42.5639C42.5639 41.5103 42.7778 41.5103 42.7778 41.7253V42.7849C42.7778 42.7849 42.7778 42.9999 42.5639 42.9999H41.5098C41.5098 42.9999 41.2959 42.9999 41.2959 42.7849V41.7253Z" fill="#C71B00"/>
</svg>
