<svg width="92" height="25" viewBox="0 0 92 25" fill="none" xmlns="http://www.w3.org/2000/svg">
<g clip-path="url(#clip0)">
<path d="M24 0.115845C30 0.115845 35.9999 0.115845 42 0.115845C42 2.19494 42 4.27403 42 6.35312C38.4808 6.35312 34.966 6.35312 31.4468 6.35312C31.4468 7.10246 31.4468 7.85613 31.4468 8.60547C34.966 8.60547 38.4808 8.60547 42 8.60547C42 13.4437 42 18.2776 42 23.1158C35.9999 23.1158 30 23.1158 24 23.1158C24 21.1103 24 19.1005 24 17.0951C27.4766 17.0951 30.949 17.0951 34.4255 17.0951C34.4255 16.3024 34.4255 15.5055 34.4255 14.7128C30.949 14.7128 27.4766 14.7128 24 14.7128C24 9.84859 24 4.98005 24 0.115845Z" fill="#123C8A"/>
<path d="M45 0.120176C47.5087 0.120176 50.0131 0.120176 52.5217 0.120176C52.5217 2.06933 52.5217 4.01849 52.5217 5.96763C52.9 5.96763 53.2739 5.96763 53.6521 5.96763C53.6521 4.88477 53.6521 3.8019 53.6521 2.71904C54.2695 2.71904 54.8869 2.72338 55.5087 2.70605C55.5304 1.84409 55.5217 0.982134 55.5217 0.115845C58.013 0.115845 60.5086 0.115845 63 0.115845C63 2.85766 63 5.60379 63 8.3456C62.1609 8.3456 61.3173 8.3456 60.4782 8.3456C60.4782 9.06895 60.4782 9.78797 60.4782 10.5113C59.7826 10.5113 59.0869 10.5113 58.3912 10.5113C58.3912 11.304 58.3912 12.1009 58.3912 12.8936C59.1 12.8936 59.813 12.8936 60.5217 12.8936C60.5217 13.6256 60.5174 14.3577 60.5347 15.0897C61.3391 15.1113 62.1478 15.1027 62.9564 15.1027C62.9564 17.7752 62.9564 20.4434 62.9564 23.1158C60.5086 23.1158 58.0565 23.1158 55.6087 23.1158C55.6087 22.1759 55.6087 21.2403 55.6087 20.3004C54.913 20.3004 54.2174 20.3004 53.5217 20.3004C53.5217 19.2738 53.5217 18.2516 53.5217 17.2251C53.2174 17.2251 52.9131 17.2251 52.6087 17.2251C52.6087 19.1872 52.6087 21.1537 52.6087 23.1158C50.0739 23.1158 47.5347 23.1158 45 23.1158C45 15.4535 45 7.78684 45 0.120176Z" fill="#123C8A"/>
<path d="M65.1096 0.11777C67.4049 0.113439 69.7045 0.11777 72 0.11777C72 7.78381 72 15.4498 72 23.1158C69.6677 23.1158 67.3354 23.1158 65.0032 23.1158C65.0155 21.4137 64.9704 19.7073 65.04 18.0052C65.0687 14.7872 64.9949 11.5649 65.085 8.34685C65.1013 5.60526 65.0522 2.85936 65.1096 0.11777Z" fill="#123C8A"/>
<path d="M75.0038 0.115845C80.6692 0.115845 86.3347 0.115845 92 0.115845C92 2.19494 92 4.27403 92 6.35312C88.8478 6.35312 85.6956 6.35312 82.5435 6.35312C82.5435 7.07647 82.5435 7.7955 82.5435 8.51884C85.6403 8.51884 88.7329 8.51884 91.8297 8.51884C91.8297 10.6412 91.8297 12.7636 91.8297 14.886C88.6476 14.886 85.4698 14.886 82.2879 14.886C82.2879 17.6279 82.2879 20.374 82.2879 23.1158C79.8769 23.1158 77.4617 23.1158 75.0506 23.1158C74.9654 21.2966 75.0166 19.4774 75.0038 17.6582C75.0038 11.8108 75.0038 5.96329 75.0038 0.115845Z" fill="#123C8A"/>
<path d="M0 0.115845V8.11584H8V0.115845H0ZM6.92115 7.03698H1.07886V1.19013H6.92572V7.03698H6.92115Z" fill="#5477A9"/>
<path d="M15 0.115845V8.11584H23V0.115845H15ZM21.9211 7.03698H16.0789V1.19013H21.9257V7.03698H21.9211Z" fill="#5477A9"/>
<path d="M0 15.1158V23.1158H8V15.1158H0ZM6.92115 22.0369H1.07886V16.1948H6.92572V22.0369H6.92115Z" fill="#5477A9"/>
<path d="M14 0.115845H13V1.11584H14V0.115845Z" fill="#5477A9"/>
<path d="M10 5.11584H9V6.11584H10V5.11584Z" fill="#5477A9"/>
<path d="M10 0.115845H9V1.11584H10V0.115845Z" fill="#5477A9"/>
<path d="M14 6.11584H13V7.11584H14V6.11584Z" fill="#5477A9"/>
<path d="M12 6.11584H11V7.11584H12V6.11584Z" fill="#5477A9"/>
<path d="M10 6.11584H9V7.11584H10V6.11584Z" fill="#5477A9"/>
<path d="M12 11.1158H11V12.1158H12V11.1158Z" fill="#5477A9"/>
<path d="M23 10.1158V9.11584H22V10.1158H23Z" fill="#5477A9"/>
<path d="M23 13.1158H22V14.1158H23V13.1158Z" fill="#5477A9"/>
<path d="M13 20.1158H12V21.1158H13V20.1158Z" fill="#5477A9"/>
<path d="M14 12.1158H13V13.1158H14V12.1158Z" fill="#5477A9"/>
<path d="M12 13.1158V14.1158H13V13.1158H12Z" fill="#5477A9"/>
<path d="M15 17.1158H14V18.1158H15V17.1158Z" fill="#5477A9"/>
<path d="M19 19.1158V18.1158H18V19.1158H19Z" fill="#5477A9"/>
<path d="M21 21.1158V20.1158H20V21.1158H21Z" fill="#5477A9"/>
<path d="M23 22.1158V21.1158H22V22.1158H23Z" fill="#5477A9"/>
<path d="M18 12.1158H17V13.1158H18V12.1158Z" fill="#5477A9"/>
<path d="M3 9.11584V10.1158H4V9.11584H3Z" fill="#5477A9"/>
<path d="M3 11.1158V12.1158H4V11.1158H3Z" fill="#5477A9"/>
<path d="M3 13.1158V14.1158H4V13.1158H3Z" fill="#5477A9"/>
<path d="M6 9.11584V10.1158H7V9.11584H6Z" fill="#5477A9"/>
<path d="M6 11.1158V12.1158H7V11.1158H6Z" fill="#5477A9"/>
<path d="M6 13.1158V14.1158H7V13.1158H6Z" fill="#5477A9"/>
<path d="M5 2.11584H2V5.11584H5V2.11584Z" fill="#BA2123"/>
<path d="M21 2.11584H18V5.11584H21V2.11584Z" fill="#BA2123"/>
<path d="M5 18.1158H2V21.1158H5V18.1158Z" fill="#BA2123"/>
<path d="M12.4976 3.26695V4.31464V5.36635H10V6.11584H13.7488V5.36635H15V4.31464V3.26695H13.7488V2.21524V1.16353H12.4976V0.115845H11.2512V1.16353V2.21524H12.4976V3.26695Z" fill="#BA2123"/>
<path d="M11 4.11584V3.11776V2.11584H10H9V3.11776V4.11584H10H11Z" fill="#BA2123"/>
<path d="M10.1033 14.7675V13.6363H11.2065V12.5051V11.3782H10.1033V10.2471H11.2065H12.3056H13.4089H14.512V11.3782V12.5051H15.6153V11.3782H16.7144H17.6402H17.8176H18.7433V12.5051V13.6363H17.6402V14.7675V15.8944V17.0256H16.7144V17.927H19.7705V18.9846H20.8695V20.1158H21.9728V18.9846V17.927H23V17.0256H18.7433V15.8944V14.7675H19.8424V13.6363V12.5051V11.3782H20.8695V10.2471V9.11584H19.8043H19.7664H18.7011H17.6021V10.2471H16.7144H15.6153V9.11584H14.512H13.4089H12.3056H11.2065H10.1033H9V10.2471V11.3782V12.5051V13.6363V14.7675V15.8944H10.1033V14.7675Z" fill="#BA2123"/>
<path d="M9.93528 16.1158V17.0834V17.3298V18.1391V18.2972V19.353V19.4321H9V20.6461V21.86V23.0181V23.0693V24.1158H10.0304H11.0648V23.0693H12V21.86H10.502H9.93528V20.6461V20.567H10.9696V19.353V18.2972H12V17.3298V17.0834V16.1158H10.9696H9.93528Z" fill="#BA2123"/>
<path d="M22.0358 12.1146H23V11.1171V10.1158H22.0358H21.9682H21V11.1171V12.1146V13.1158H22.0358V12.1146Z" fill="#BA2123"/>
<path d="M17.5371 19.1158H15.2708H13V20.1526V21.1893H14.183V22.1784H13V23.1158H14.7722H16.5445V22.2221H17.5371V23.1158H19.2686H21V22.1784H19.2686H18.7201V21.1893H17.5371V20.1526V19.1158Z" fill="#BA2123"/>
<path d="M12 14.1158V15.1158H13H14V14.1158H13H12Z" fill="#BA2123"/>
<path d="M16 14.1171V13.1158H15.0019H14V14.1171H15.0019V15.1146V16.1158H16V15.1146V14.1171Z" fill="#BA2123"/>
<path d="M1.99872 14.1158H3V12.8646H1.99872V11.6182H3V10.3671V9.11584H1.99872H1.00128H0V10.3671V11.6182V12.8646V14.1158H1.00128H1.99872Z" fill="#BA2123"/>
<path d="M7 10.1158H5V11.1158H7V10.1158Z" fill="#BA2123"/>
<path d="M7 12.1158H5V13.1158H7V12.1158Z" fill="#BA2123"/>
</g>
<defs>
<clipPath id="clip0">
<rect width="92" height="24" fill="white" transform="translate(0 0.115845)"/>
</clipPath>
</defs>
</svg>
