<svg width="155" height="35" viewBox="0 0 155 35" fill="none" xmlns="http://www.w3.org/2000/svg">
<path fill-rule="evenodd" clip-rule="evenodd" d="M100.21 4V4.00917C100.201 4.00917 97.2806 4 96.5019 6.76026C95.788 9.29127 93.7763 16.279 93.7206 16.4716H93.1644C93.1644 16.4716 91.1063 9.32795 90.3832 6.75109C89.6045 3.99083 86.6749 4 86.6749 4H80V25H86.6749V12.5284H86.953H87.2311L91.1248 25H95.7602L99.6539 12.5376H100.21V25H106.885V4H100.21Z" fill="#4DB45E"/>
<path fill-rule="evenodd" clip-rule="evenodd" d="M124.592 4C124.592 4 122.636 4.17424 121.718 6.20087L116.99 16.4716H116.434V4H109.759V25H116.063C116.063 25 118.112 24.8166 119.029 22.7991L123.665 12.5284H124.221V25H130.896V4H124.592Z" fill="#4DB45E"/>
<path fill-rule="evenodd" clip-rule="evenodd" d="M133.863 13.5371V25H140.538V18.3057H147.769C150.921 18.3057 153.591 16.3157 154.583 13.5371H133.863Z" fill="#4DB45E"/>
<path fill-rule="evenodd" clip-rule="evenodd" d="M147.769 4H132.926C133.668 7.99825 136.699 11.2079 140.621 12.2533C141.511 12.4917 142.447 12.6201 143.411 12.6201H154.851C154.953 12.1432 155 11.6572 155 11.1528C155 7.20044 151.764 4 147.769 4Z" fill="url(#paint0_linear)"/>
<path d="M34.9357 3.6626H20.0645V30.5851H34.9357V3.6626Z" fill="#FF5F00"/>
<path d="M21.0086 17.1238C21.0086 11.6537 23.5579 6.80196 27.4764 3.6626C24.5966 1.37942 20.9614 0 16.9957 0C7.60086 0 0 7.65815 0 17.1238C0 26.5895 7.60086 34.2476 16.9957 34.2476C20.9614 34.2476 24.5966 32.8682 27.4764 30.5851C23.5579 27.4932 21.0086 22.5939 21.0086 17.1238Z" fill="#EB001B"/>
<path d="M54.9998 17.1238C54.9998 26.5895 47.399 34.2476 38.0041 34.2476C34.0385 34.2476 30.4033 32.8682 27.5234 30.5851C31.4891 27.4457 33.9913 22.5939 33.9913 17.1238C33.9913 11.6537 31.4419 6.80196 27.5234 3.6626C30.4033 1.37942 34.0385 0 38.0041 0C47.399 0 54.9998 7.70572 54.9998 17.1238Z" fill="#F79E1B"/>
<defs>
<linearGradient id="paint0_linear" x1="132.928" y1="8.31004" x2="155" y2="8.31004" gradientUnits="userSpaceOnUse">
<stop offset="0.3" stop-color="#00B4E6"/>
<stop offset="1" stop-color="#088CCB"/>
</linearGradient>
</defs>
</svg>
