<svg width="160" height="26" viewBox="0 0 160 26" fill="none" xmlns="http://www.w3.org/2000/svg">
<path d="M0 16H12V20H0V26H20V10H8V6H20V0H0V16Z" fill="#2B409E"/>
<path d="M56 0H48V26H56V0Z" fill="#2B409E"/>
<path d="M36 4H34V8H32V0H24V26H32V18H34V22H36V26H44V20H42V16H40V10H42V6H44V0H36V4Z" fill="#2B409E"/>
<path d="M80 6V0H60V26H68V16H80V10H68V6H80Z" fill="#2B409E"/>
<path d="M92 26H100V20H108V16H112V0H92V26ZM104 14H100V6H104V14Z" fill="#C7130C"/>
<path d="M140 0V26H160V0H140ZM152 20H148V6H152V20Z" fill="#C7130C"/>
<path d="M116 26H124V20H128V26H136V20H132V16H136V0H116V26ZM128 14H124V6H128V14Z" fill="#C7130C"/>
<path d="M88 20H82V26H88V20Z" fill="#C7130C"/>
</svg>
