<svg width="203" height="33" viewBox="0 0 203 33" fill="none" xmlns="http://www.w3.org/2000/svg">
<path d="M0 20.3077H15.225V25.3846H0V33H25.375V12.6923H10.15V7.61538H25.375V0H0V20.3077Z" fill="#2B409E"/>
<path d="M71.0499 0H60.8999V33H71.0499V0Z" fill="#2B409E"/>
<path d="M45.6752 5.07692H43.1377V10.1538H40.6002V0H30.4502V33H40.6002V22.8462H43.1377V27.9231H45.6752V33H55.8252V25.3846H53.2877V20.3077H50.7502V12.6923H53.2877V7.61538H55.8252V0H45.6752V5.07692Z" fill="#2B409E"/>
<path d="M101.5 7.61538V0H76.125V33H86.275V20.3077H101.5V12.6923H86.275V7.61538H101.5Z" fill="#2B409E"/>
<path d="M116.725 33H126.875V25.3846H137.025V20.3077H142.1V0H116.725V33ZM131.95 17.7692H126.875V7.61538H131.95V17.7692Z" fill="#C7130C"/>
<path d="M177.625 0V33H203V0H177.625ZM192.85 25.3846H187.775V7.61538H192.85V25.3846Z" fill="#C7130C"/>
<path d="M147.175 33H157.325V25.3846H162.4V33H172.55V25.3846H167.475V20.3077H172.55V0H147.175V33ZM162.4 17.7692H157.325V7.61538H162.4V17.7692Z" fill="#C7130C"/>
<path d="M111.65 25.3846H104.038V33H111.65V25.3846Z" fill="#C7130C"/>
</svg>
