<svg width="155" height="35" viewBox="0 0 155 35" fill="none" xmlns="http://www.w3.org/2000/svg">
<path d="M118.788 11.6727C118.745 15.0158 121.795 16.8815 124.092 17.9907C126.452 19.1289 127.245 19.8587 127.236 20.8763C127.218 22.4341 125.353 23.1214 123.608 23.1482C120.563 23.1951 118.793 22.3336 117.385 21.682L116.288 26.7681C117.7 27.4131 120.315 27.9755 123.027 28C129.391 28 133.555 24.8867 133.578 20.0595C133.603 13.9334 125.027 13.5942 125.085 10.8559C125.105 10.0257 125.905 9.13967 127.657 8.91426C128.524 8.80045 130.918 8.71341 133.632 9.95202L134.697 5.03106C133.238 4.50437 131.362 4 129.026 4C123.036 4 118.822 7.15566 118.788 11.6727ZM144.933 4.42403C143.771 4.42403 142.791 5.09578 142.354 6.12684L133.263 27.6385H139.623L140.888 24.1726H148.66L149.394 27.6385H155L150.108 4.42403H144.933ZM145.823 10.6952L147.658 19.4123H142.631L145.823 10.6952ZM111.077 4.42403L106.064 27.6385H112.124L117.135 4.42403H111.077ZM102.111 4.42403L95.8031 20.2247L93.2515 6.78966C92.9519 5.28994 91.7696 4.42403 90.4566 4.42403H80.1441L80 5.09801C82.117 5.55328 84.5223 6.28752 85.9794 7.07309C86.8712 7.55291 87.1257 7.97248 87.4185 9.11289L92.2515 27.6385H98.6565L108.476 4.42403H102.111Z" fill="url(#paint0_linear)"/>
<path d="M34.936 30.5863H20.064V3.66077H34.936V30.5863Z" fill="#6C6BBD"/>
<path d="M21.008 17.124C21.008 11.6621 23.5465 6.79672 27.4995 3.66129C24.6088 1.36851 20.9605 2.28882e-05 16.9955 2.28882e-05C7.60892 2.28882e-05 0 7.66658 0 17.124C0 26.5815 7.60892 34.248 16.9955 34.248C20.9605 34.248 24.6088 32.8796 27.4995 30.5868C23.5465 27.4514 21.008 22.586 21.008 17.124Z" fill="#D32011"/>
<path d="M55.0001 17.124C55.0001 26.5815 47.3912 34.248 38.0046 34.248C34.0397 34.248 30.3914 32.8796 27.4995 30.5868C31.4536 27.4514 33.9921 22.586 33.9921 17.124C33.9921 11.6621 31.4536 6.79672 27.4995 3.66129C30.3914 1.36851 34.0397 2.28882e-05 38.0046 2.28882e-05C47.3912 2.28882e-05 55.0001 7.66658 55.0001 17.124Z" fill="#0099DF"/>
<defs>
<linearGradient id="paint0_linear" x1="114.481" y1="28.4815" x2="115.169" y2="3.83275" gradientUnits="userSpaceOnUse">
<stop stop-color="#222357"/>
<stop offset="1" stop-color="#254AA5"/>
</linearGradient>
</defs>
</svg>
